<svg width="288" height="743" viewBox="0 0 288 743" fill="none" xmlns="http://www.w3.org/2000/svg">
<path d="M57.7711 136.931C57.7711 136.931 62.8649 125.529 67.1452 131.574C71.4353 137.609 58.6136 144.022 57.7711 136.931Z" fill="url(#paint0_linear_17_6040)"/>
<path d="M31.6921 146.309L29.0581 80.9745C32.4184 73.0596 33.4643 57.6173 32.0989 52.8509C29.7844 44.7423 24.3807 51.3106 24.3807 51.3106C20.9041 45.1298 17.8149 51.3106 17.8149 51.3106C15.8878 44.3548 10.8618 50.9231 10.8618 50.9231C6.24256 43.1923 0.45152 52.4634 2.00096 66.7529C2.57232 72.0618 5.01269 75.2878 7.85979 77.2544C4.95458 95.448 -3.17998 162.061 2.43674 176.331C11.501 199.359 93.4955 168.184 93.4955 168.184L95.258 131.506L31.7018 146.309H31.6921Z" fill="url(#paint1_linear_17_6040)"/>
<path d="M30.7722 65.4548C30.0459 64.5345 29.339 63.5657 28.6223 62.6066C19.8486 60.175 11.1137 57.5302 2.05911 57.3268C1.68143 60.049 1.61364 63.246 1.99132 66.753C2.56267 72.0619 5.00304 75.2879 7.85014 77.2545C7.65646 78.4848 7.42405 79.9961 7.19163 81.6334C14.9388 79.1824 22.8507 77.0317 30.8884 75.0748C31.4985 72.4397 31.9343 69.5818 32.2345 66.782C31.7212 66.4623 31.2273 66.0361 30.7819 65.4645L30.7722 65.4548Z" fill="url(#paint2_linear_17_6040)"/>
<path d="M48.8037 142.317C52.9388 154.359 57.1223 166.392 61.267 178.424C78.8532 173.735 93.4857 168.174 93.4857 168.174L95.2482 131.496L48.8037 142.317Z" fill="#F8AEA0"/>
<path opacity="0.1" d="M284.619 723.573C284.619 733.794 222.031 742.077 144.821 742.077C67.6101 742.077 5.02234 733.794 5.02234 723.573C5.02234 713.353 67.6101 705.07 144.821 705.07C222.031 705.07 284.619 713.353 284.619 723.573Z" fill="#1C1C1B"/>
<path d="M131.05 392.203L203.176 708.17L223.203 688.755L190.568 365.146L131.05 392.203Z" fill="#F8AEA0"/>
<path opacity="0.2" d="M192.611 661.891L131.04 392.203L190.558 365.146L219.911 656.146C210.73 657.658 201.579 659.963 192.611 661.891Z" fill="#201829"/>
<path d="M223.513 686.324L199.264 697.755L200.32 717.441L287.505 703.49C287.505 703.49 280.542 695.401 223.513 686.333V686.324Z" fill="#2B2238"/>
<path d="M287.505 703.49L200.32 717.441L200.668 723.999L287.408 707.772L287.505 703.49Z" fill="#2B2238"/>
<path d="M230.97 687.079C228.742 690.315 227.58 694.093 226.021 697.668C225.857 698.046 226.409 698.366 226.573 697.988C228.132 694.423 229.294 690.635 231.522 687.399C231.754 687.06 231.202 686.74 230.97 687.079Z" fill="#2B2238"/>
<path d="M236.722 687.622C234.504 690.858 233.332 694.636 231.773 698.211C231.609 698.588 232.161 698.908 232.325 698.53C233.884 694.965 235.047 691.187 237.274 687.942C237.506 687.602 236.954 687.283 236.722 687.622Z" fill="#2B2238"/>
<path d="M243.084 688.474C240.867 691.71 239.695 695.488 238.136 699.063C237.971 699.441 238.523 699.761 238.688 699.383C240.247 695.818 241.409 692.039 243.636 688.794C243.869 688.455 243.317 688.135 243.084 688.474Z" fill="#2B2238"/>
<path d="M94.7931 130.711C75.1055 134.247 53.3359 138.152 53.3359 138.152L63.6978 186.426L128.455 137.038C128.455 137.038 114.481 127.175 94.7931 130.721V130.711Z" fill="#254756"/>
<path d="M122.886 385.451L113.474 709.41L90.0673 694.258L59.2528 370.474L122.886 385.451Z" fill="#F8AEA0"/>
<path opacity="0.2" d="M114.858 661.959L122.896 385.441L59.2625 370.464L86.9685 661.63C96.2651 661.329 105.697 661.814 114.868 661.959H114.858Z" fill="#201829"/>
<path d="M70.2635 214.452L76.5968 296.634L178.405 283.148L148.743 231.416L70.2635 214.452Z" fill="#5EA845"/>
<path d="M73.2655 247.158C73.2655 247.158 104.245 259.878 158.649 250.52C158.649 250.52 207.699 295.355 215.136 352.338C220.356 392.339 243.578 643.174 243.578 643.174L169.834 648.774L102.443 328.807L135.882 358.538L125.976 645.945L48.7747 651.99C48.7747 651.99 21.95 395.701 73.2655 247.168V247.158Z" fill="#5EA845"/>
<path d="M163.598 638.224L247.432 617.851L251.045 649.656L166.842 659.566L163.598 638.224Z" fill="#5EA845"/>
<path opacity="0.2" d="M113.9 348.628C89.9898 335.753 71.5612 320.136 57.8099 305.605C28.0993 454.36 48.7747 651.99 48.7747 651.99L125.976 645.945L132.057 469.425L135.224 484.46C123.148 413.701 113.9 348.628 113.9 348.628Z" fill="#201829"/>
<path d="M43.7778 619.633L132.6 638.079L131.282 656.602L46.7411 656.02L43.7778 619.633Z" fill="#528B3F"/>
<path opacity="0.2" d="M154.621 241.675L148.743 231.425L70.2635 214.452L72.8201 247.672C95.5678 249.532 127.903 249.939 154.621 241.675Z" fill="#201829"/>
<path d="M117.948 131.855C117.948 131.855 103.867 128.193 93.3599 130.992C82.8527 133.792 64.211 165.481 59.2819 179.034C54.3527 192.587 72.9392 245.322 72.9392 245.322C72.9392 245.322 122.124 252.153 154.972 239.211L179.983 209.928C179.983 209.928 222.293 164.173 182.269 145.292L168.847 142.104C168.847 142.104 119.274 159.019 117.948 131.845V131.855Z" fill="#254756"/>
<path d="M89.2829 691.933L115.284 698.433L118.073 717.945L29.8425 721.2C29.8425 721.2 35.1009 711.909 89.2829 691.933Z" fill="#2B2238"/>
<path d="M29.8425 721.2L118.073 717.954L119.003 724.455L30.7721 725.385L29.8425 721.2Z" fill="#2B2238"/>
<path d="M81.652 694.568C84.441 697.29 86.3003 700.758 88.5083 703.926C88.7407 704.265 89.3023 703.946 89.0602 703.607C86.8232 700.39 84.9349 696.883 82.0974 694.113C81.8069 693.822 81.3518 694.277 81.6423 694.568H81.652Z" fill="#2B2238"/>
<path d="M76.1126 696.205C78.9016 698.927 80.7609 702.396 82.9689 705.564C83.2013 705.903 83.763 705.583 83.5209 705.244C81.2839 702.028 79.3955 698.521 76.5581 695.75C76.2676 695.459 75.8124 695.915 76.1029 696.205H76.1126Z" fill="#2B2238"/>
<path d="M70.0408 698.278C72.8298 701.001 74.6891 704.469 76.897 707.637C77.1295 707.976 77.6911 707.656 77.449 707.317C75.212 704.101 73.3236 700.594 70.4862 697.823C70.1957 697.532 69.7406 697.988 70.0311 698.278H70.0408Z" fill="#2B2238"/>
<path d="M144.462 181.669L107.925 198.71L87.6464 136.999C81.1193 137.706 74.8247 143.964 68.4914 145.582C72.8589 164.667 84.7702 228.829 93.0307 237.616C102.492 247.691 162.581 213.774 162.581 213.774L144.453 181.669H144.462Z" fill="url(#paint3_linear_17_6040)"/>
<path d="M78.2238 159.31C78.2238 159.31 60.5505 161.596 61.3446 136.999C61.3446 136.999 61.3446 133.54 63.7172 131.283C65.8283 129.278 67.1453 131.574 67.1453 131.574C67.1453 131.574 67.1453 128.716 70.0505 128.997C72.9557 129.287 73.4786 131.283 73.4786 131.283C73.4786 131.283 73.7401 128.706 76.1127 128.425C78.4853 128.135 79.0179 131.002 79.0179 131.002C79.0179 131.002 79.2794 127.001 83.7631 128.144C88.2468 129.287 96.5653 154.117 87.5979 154.979L78.2238 159.319V159.31Z" fill="url(#paint4_linear_17_6040)"/>
<path d="M29.5132 59.0415C29.5132 59.0415 37.3185 56.697 39.7782 64.9025C42.238 73.1081 31.9729 82.8733 23.3445 80.1414C14.716 77.4094 29.5035 59.0415 29.5035 59.0415H29.5132Z" fill="url(#paint5_linear_17_6040)"/>
<path d="M10.8715 50.9231C10.8715 50.9231 11.0264 46.4183 7.16248 46.4183C3.29856 46.4183 -2.05669 65.2901 3.94739 67.0145C9.95148 68.7292 10.8715 50.9328 10.8715 50.9328V50.9231Z" fill="url(#paint6_linear_17_6040)"/>
<path d="M31.4597 52.4247C31.4597 52.4247 31.6146 47.9199 27.7507 47.9199C23.8868 47.9199 18.5315 66.7917 24.5356 68.5161C30.5397 70.2308 31.4597 52.4344 31.4597 52.4344V52.4247Z" fill="url(#paint7_linear_17_6040)"/>
<path d="M17.9506 51.9597C17.9506 51.9597 18.1055 47.2709 14.2416 47.2709C10.3777 47.2709 5.02241 66.9273 11.0265 68.7196C17.0306 70.5021 17.9506 51.9694 17.9506 51.9694V51.9597Z" fill="url(#paint8_linear_17_6040)"/>
<path d="M24.5937 52.6088C24.5937 52.6088 24.7487 47.9199 20.8848 47.9199C17.0209 47.9199 11.6656 67.5764 17.6697 69.3686C23.6738 71.1512 24.5937 52.6185 24.5937 52.6185V52.6088Z" fill="url(#paint9_linear_17_6040)"/>
<path d="M200.204 96.3975C200.204 96.3975 204.252 73.5828 203.661 73.2438C206.566 61.8607 191.333 41.1482 187.934 36.6144C169.505 12.0462 154.669 8.8202 124.058 27.8566C99.9063 42.8727 96.6622 81.1199 96.6622 83.8228C90.968 85.2953 93.544 94.334 99.1123 94.7409C99.1123 94.7409 96.2845 99.1779 100.565 102.636C104.845 106.095 106.859 104.768 106.859 104.768C106.859 104.768 102.153 109.147 108.612 112.867C108.612 112.867 105.049 113.932 109.28 117.139C113.512 120.346 119.507 113.787 119.507 113.787C119.507 113.787 117.367 119.571 121.531 122.274C125.685 124.976 132.474 120.598 132.474 120.598C132.474 120.598 135.447 128.59 139.892 129.113C144.337 129.636 148.384 125.18 148.384 125.18C148.384 125.18 146.893 128.793 151.28 129.384C155.26 129.927 156.587 123.407 156.8 122.177C156.606 123.426 155.657 130.188 158.272 130.208C163.395 130.237 163.395 125.616 163.908 127.166C164.431 128.716 168.982 128.774 173.253 127.108C177.146 125.587 176.662 120.849 176.662 120.849C176.662 120.849 179.567 122.913 182.772 119.512C182.772 119.512 181.426 125.529 186.23 124.027C190.432 122.709 188.186 114.61 188.186 114.61C188.186 114.61 190.568 117.769 194.781 116.335C198.16 115.192 194.829 110.561 194.829 110.561C194.829 110.561 199.768 113.438 202.034 111.239C204.3 109.04 200.204 96.3878 200.204 96.3878V96.3975Z" fill="url(#paint10_linear_17_6040)"/>
<path d="M138.642 101.377L130.12 132.504L106.763 129.937L119.598 157.406C121.825 162.173 127.366 164.399 132.272 162.496L178.773 144.468L159.395 138.84L167.055 96.136L138.642 101.377Z" fill="url(#paint11_linear_17_6040)"/>
<path d="M158.562 26.1419C158.562 26.1419 122.577 23.2355 111.643 64.4279C100.71 105.62 130.111 119.571 150.35 118.486C170.59 117.401 186.239 97.4534 190.365 85.2856C194.49 73.1178 191.023 30.3657 158.562 26.1322V26.1419Z" fill="url(#paint12_linear_17_6040)"/>
<path d="M211.418 65.7551C210.207 70.289 207.166 64.8542 207.166 64.8542C205.946 71.8003 200.969 72.4203 200.969 72.4203C200.969 72.4203 205.743 74.7163 205.452 79.4924C205.162 84.2684 196.407 83.474 196.407 83.474C196.407 83.474 198.247 92.1543 194.054 93.1327C189.851 94.1112 190.432 90.3523 190.432 90.3523C185.31 92.2124 187.856 86.7873 187.856 86.7873C186.152 85.0338 190.859 79.783 190.859 79.783C188.234 79.318 188.941 74.0769 188.941 74.0769C187.973 76.4504 188.05 76.9154 188.05 76.9154C188.05 76.9154 187.44 80.6258 184.409 80.0833C181.368 79.5505 178.105 65.4451 178.105 65.4451C175.248 64.3117 178.676 52.1148 178.676 52.1148C178.676 52.1148 176.468 53.5582 175.17 52.4054C173.902 51.2719 175.587 46.7284 175.645 46.554C175.587 46.6606 174.58 48.3365 170.077 47.9006C165.515 47.4646 165.535 40.1504 165.583 40.0535C161.516 41.6811 157.284 38.581 157.284 38.581C157.284 38.581 155.802 42.5142 153.991 42.3011C152.181 42.0879 146.496 35.7037 146.496 35.7037C142.865 37.0794 139.136 35.7425 139.136 35.7425C139.553 35.9943 136.154 43.483 133.055 42.582C130.072 41.7198 129.481 40.4507 129.433 40.3635C129.433 40.4991 129.568 43.4539 127.273 48.9275C124.92 54.5367 120.698 52.1632 120.698 52.1632C120.698 52.1632 121.753 58.2374 120.988 60.6884C120.223 63.1394 118.693 65.1642 118.693 65.1642C118.693 65.1642 118.18 70.7153 115.972 69.9402C113.764 69.1555 113.832 67.1405 113.696 66.5398C113.561 65.9489 112.66 68.3999 109.523 69.6399C106.385 70.88 107.005 66.7336 107.005 66.7336C105.717 68.9908 102.937 68.3321 102.937 68.3321C102.937 68.3321 103.635 74.8713 102.056 77.1189C98.4537 82.2534 95.3839 73.5635 95.3839 73.5635C92.0816 72.7109 93.4761 68.3611 93.4761 68.3611C93.4761 68.3611 92.6724 69.4074 90.6193 67.7605C88.5663 66.1136 88.2468 58.9253 90.1642 55.9414C91.9364 53.1804 92.5852 55.5636 92.6724 55.9221C92.6724 55.9511 92.6724 55.9705 92.6724 55.9705C92.6724 55.9705 87.0266 52.9188 87.0556 50.3128C87.0847 47.7068 89.4185 42.9695 89.4185 42.9695C89.4185 42.9695 86.3778 40.4798 85.971 37.5541C85.5643 34.6284 86.1453 27.6822 88.8859 27.5369C91.549 27.3916 92.101 29.4939 92.1301 29.707C92.1301 29.707 92.8079 24.9503 93.9119 23.4003C94.6285 22.4024 97.4175 20.678 98.5118 20.5327C101.185 20.1742 103.112 21.5305 103.112 21.5305C105.571 19.6802 107.838 16.1054 107.838 16.1054C107.838 16.1054 105.697 14.8363 106.966 12.4047C109.726 7.09576 119.846 3.24003 124.91 1.5253C131.805 -0.809449 135.931 2.74596 135.873 2.81377C142.806 1.11841 148.23 2.05813 148.23 2.05813C148.23 2.05813 148.084 1.11841 150.854 0.27558C153.507 -0.528504 155.415 0.469335 157.546 2.71689L157.584 2.75565C157.584 2.75565 159.453 0.83747 162.736 2.42626C166.639 4.31537 170.067 11.0774 169.951 20.5714C171.132 20.7071 171.791 20.8524 173.272 21.3561C186.743 13.4316 188.157 24.4853 188.157 24.4853C188.157 24.4853 190.403 23.7199 194.577 24.4368C198.635 25.1344 198.654 25.8997 198.567 27.3335C198.48 28.806 195.604 29.2904 195.604 29.2904C204.542 32.3421 203.177 32.2258 203.177 32.2258C206.537 34.1924 206.808 36.469 206.74 37.4959C206.711 37.8447 206.653 38.0481 206.653 38.0481C206.653 38.0481 212.183 40.8382 212.125 43.638C212.066 46.4377 208.493 45.6143 208.493 45.6143C209.277 47.8328 208.968 50.5163 208.571 52.357C208.299 53.6454 207.99 54.5173 207.99 54.5173C207.99 54.5173 212.657 61.2116 211.437 65.7551H211.418Z" fill="url(#paint13_linear_17_6040)"/>
<path style="mix-blend-mode:multiply" d="M211.418 65.7551C210.207 70.289 207.166 64.8542 207.166 64.8542C205.946 71.8003 200.969 72.4203 200.969 72.4203C200.969 72.4203 205.743 74.7163 205.452 79.4924C205.162 84.2684 196.407 83.474 196.407 83.474C196.407 83.474 198.247 92.1543 194.054 93.1327C189.851 94.1112 190.432 90.3524 190.432 90.3524C185.31 92.2124 187.856 86.7873 187.856 86.7873C186.152 85.0338 190.858 79.783 190.858 79.783C188.234 79.318 188.941 74.0769 188.941 74.0769C187.973 76.4504 183.692 74.7551 183.692 74.7551C183.692 74.7551 187.45 80.6258 184.409 80.093C181.368 79.5602 178.105 65.4548 178.105 65.4548C175.248 64.3214 178.676 52.1245 178.676 52.1245C178.676 52.1245 176.468 53.5679 175.17 52.4151C173.873 51.2623 175.655 46.554 175.655 46.554C175.655 46.554 174.725 48.3462 170.086 47.9103C165.525 47.4743 165.544 40.1601 165.593 40.0632C161.526 41.6908 157.294 38.5907 157.294 38.5907C157.294 38.5907 155.812 42.5239 154.001 42.3108C152.19 42.0976 146.506 35.7134 146.506 35.7134C142.874 37.0891 139.146 35.7522 139.146 35.7522C139.562 36.004 136.163 43.4927 133.064 42.5917C130.082 41.7295 129.491 40.4604 129.442 40.3732C129.442 40.5089 129.578 43.4636 127.283 48.9372C124.93 54.5464 120.707 52.1729 120.707 52.1729C120.707 52.1729 121.763 58.2471 120.998 60.6981C120.233 63.1491 118.703 65.1739 118.703 65.1739C118.703 65.1739 118.19 70.725 115.982 69.9499C113.774 69.1652 113.842 67.1502 113.706 66.5495C113.57 65.9586 112.67 68.4096 109.532 69.6496C106.395 70.8897 107.014 66.7433 107.014 66.7433C105.726 69.0005 102.947 68.3418 102.947 68.3418C102.947 68.3418 103.644 74.881 102.066 77.1286C98.4633 82.2631 95.3935 73.5732 95.3935 73.5732C92.0912 72.7206 93.4857 68.3708 93.4857 68.3708C93.4857 68.3708 92.682 69.4171 90.629 67.7702C88.5759 66.1233 88.2564 58.935 90.1738 55.9511C92.0912 52.9673 92.6916 55.9802 92.6916 55.9802C92.6916 55.9802 87.0459 52.9286 87.0749 50.3225C87.104 47.7165 89.4378 42.9792 89.4378 42.9792C89.4378 42.9792 86.397 40.4895 85.9903 37.5638C85.5836 34.6381 86.1646 27.6919 88.9052 27.5466C91.5683 27.4013 92.1203 29.5036 92.1493 29.7167C93.3211 33.1365 111.711 30.2883 111.711 30.2883C111.711 30.2883 108.719 34.1827 115.013 33.8534C122.906 33.4368 128.561 25.8513 128.561 25.8513C128.561 25.8513 136.541 28.6413 142.158 27.4401C158.63 23.9234 168.101 18.8567 169.602 14.9719L169.97 20.5618L173.292 21.3465C173.292 21.3465 169.108 23.4971 169.437 29.1257C169.583 31.5864 178.782 33.0396 179.635 30.453C179.635 30.453 179.693 35.8587 185.397 35.045C185.397 35.045 181.116 37.0503 183.208 41.9717C185.3 46.8931 205.995 44.9071 206.663 38.0288C206.663 38.0288 212.192 40.8189 212.134 43.6186C212.076 46.4184 208.503 45.5949 208.503 45.5949C209.829 49.3635 208.009 54.4883 208.009 54.4883C208.009 54.4883 212.677 61.1825 211.456 65.7261L211.418 65.7551Z" fill="url(#paint14_linear_17_6040)"/>
<path style="mix-blend-mode:multiply" d="M211.418 65.7551C210.207 70.289 207.166 64.8542 207.166 64.8542C205.946 71.8003 200.969 72.4203 200.969 72.4203C200.969 72.4203 205.743 74.7163 205.452 79.4924C205.162 84.2684 196.407 83.4741 196.407 83.4741C196.407 83.4741 198.247 92.1543 194.054 93.1327C189.851 94.1112 190.432 90.3524 190.432 90.3524C185.31 92.2124 187.856 86.7873 187.856 86.7873C186.152 85.0338 190.858 79.783 190.858 79.783C188.234 79.318 188.941 74.0769 188.941 74.0769C187.973 76.4504 183.692 74.7551 183.692 74.7551C183.692 74.7551 187.45 80.6259 184.409 80.093C181.368 79.5602 178.105 65.4548 178.105 65.4548C175.248 64.3214 178.676 52.1245 178.676 52.1245C178.676 52.1245 176.468 53.5679 175.17 52.4151C173.902 51.2816 175.587 46.7381 175.645 46.5637C175.587 46.6703 174.58 48.3462 170.077 47.9103C165.515 47.4743 165.535 40.1601 165.583 40.0632C161.516 41.6908 157.284 38.5907 157.284 38.5907C157.284 38.5907 155.802 42.5239 153.991 42.3108C152.181 42.0976 146.496 35.7134 146.496 35.7134C142.865 37.0891 139.136 35.7522 139.136 35.7522C139.553 36.004 136.153 43.4927 133.055 42.5917C130.072 41.7295 129.481 40.4604 129.433 40.3732C129.433 40.5088 129.568 43.4636 127.273 48.9372C124.92 54.5464 120.698 52.1729 120.698 52.1729C120.698 52.1729 121.753 58.2471 120.988 60.6981C120.223 63.1491 118.693 65.1739 118.693 65.1739C118.693 65.1739 118.18 70.725 115.972 69.9499C113.764 69.1652 113.832 67.1502 113.696 66.5495C113.561 65.9586 112.66 68.4096 109.522 69.6496C106.385 70.8897 107.005 66.7433 107.005 66.7433C105.717 69.0005 102.937 68.3418 102.937 68.3418C102.937 68.3418 103.635 74.881 102.056 77.1286C98.4536 82.2631 95.3838 73.5732 95.3838 73.5732C92.0816 72.7206 93.4761 68.3708 93.4761 68.3708C93.4761 68.3708 92.6723 69.4171 90.6193 67.7702C88.5663 66.1233 88.2467 58.935 90.1641 55.9511C91.9363 53.1901 92.5851 55.5733 92.6723 55.9318C92.6723 55.9608 92.6723 55.9802 92.6723 55.9802C92.682 60.795 96.4684 56.4258 96.4684 56.4258C96.4684 56.4258 96.9429 59.3128 99.8578 57.8984C99.6932 57.9952 97.5821 59.1772 100.148 59.865C102.821 60.5819 104.797 55.9027 104.797 55.9027C104.797 55.9027 106.152 58.2665 109.261 57.9274C109.261 57.9274 106.23 59.8747 110.026 60.3203C113.822 60.7659 111.605 53.5873 111.605 53.5873C111.605 53.5873 113.996 55.3699 116.02 52.7057C118.044 50.0319 116.921 44.9943 116.921 44.9943C116.921 44.9943 118.441 48.385 122.363 47.1353C126.285 45.8952 128.038 38.271 128.038 38.271C128.038 38.271 129.772 39.7241 131.679 39.976C133.587 40.2279 134.304 34.0956 134.304 34.0956C134.304 34.0956 134.769 36.2559 138.817 33.9212C138.817 33.9212 138.526 35.4906 141.538 35.1418C144.54 34.7931 147.784 30.5983 147.784 30.5983C147.784 30.5983 148.326 36.44 150.796 37.1278C153.265 37.8156 152.626 29.5617 152.626 29.5617C152.626 29.5617 155.841 33.214 158.388 31.6058C160.935 29.9976 161.342 27.3335 161.342 27.3335C161.342 27.3335 160.635 31.6058 163.908 31.567C167.045 31.5283 168.198 29.1645 168.295 28.961C168.169 29.3195 165.767 36.13 170.629 37.3313C170.048 37.1956 165.525 36.2075 166.832 38.9007C168.237 41.7683 172.769 38.7941 172.769 38.7941C172.769 38.7941 171.248 41.3226 173.64 42.708C175.839 43.9771 176.788 42.4948 176.923 42.243C176.72 42.6789 174.841 46.9125 179.489 48.4141C179.257 48.3656 176.265 47.7262 177.233 49.47C178.25 51.2719 181.93 51.2041 181.93 51.2041C181.93 51.2041 179.267 53.8973 180.932 55.3989C181.591 55.9899 182.491 55.9414 183.344 55.6605C180.923 57.2299 177.911 59.9619 180.1 62.9263C182.608 66.3267 185.765 63.6335 187.246 61.9866C186.317 63.3138 185.164 65.6001 187.101 67.0533C189.948 69.1943 193.047 62.7326 193.047 62.7326C193.047 62.7326 193.279 65.9683 196.969 64.9995C196.969 64.9995 193.279 68.5743 196.01 69.6981C198.741 70.8218 205.84 68.5452 203.477 65.1545C203.477 65.1545 206.111 62.6551 204.019 60.5044C204.019 60.5044 208.735 59.7875 207.96 54.5173C207.96 54.5173 212.628 61.2116 211.408 65.7551H211.418Z" fill="url(#paint15_linear_17_6040)"/>
<path style="mix-blend-mode:soft-light" opacity="0.5" d="M143.204 19.5445C143.204 19.5445 145.973 20.7167 143.388 21.7436C140.802 22.7705 136.231 21.2108 136.231 21.2108C128.281 23.1483 125.637 21.6273 126.625 18.1494C126.625 18.1494 120.814 12.0461 128.639 10.9417C130.614 10.6608 129.791 12.5499 129.762 12.5887C133.791 11.5521 133.374 13.6834 133.374 13.6834C133.374 13.6834 138.352 9.97296 140.008 9.61452C156.839 5.95254 151.106 12.2302 151.106 12.2302C168.411 16.8706 143.204 19.5638 143.204 19.5638V19.5445Z" fill="url(#paint16_linear_17_6040)"/>
<path d="M133.355 79.2598C134.343 79.0951 131.186 71.0155 125.375 69.0586C118.354 66.6948 116.021 73.0209 115.904 74.3481C115.788 75.6754 128.61 80.0542 133.355 79.2598Z" fill="url(#paint17_linear_17_6040)"/>
<path d="M130.171 74.109C130.293 71.4688 128.292 69.2308 125.701 69.1104C123.11 68.9899 120.91 71.0326 120.787 73.6729C120.665 76.3131 122.666 78.5511 125.257 78.6715C127.848 78.792 130.048 76.7493 130.171 74.109Z" fill="url(#paint18_linear_17_6040)"/>
<path d="M129.9 74.0964C130.015 71.6111 128.13 69.5045 125.688 69.391C123.246 69.2775 121.174 71.2002 121.058 73.6855C120.943 76.1707 122.829 78.2774 125.27 78.3909C127.712 78.5044 129.784 76.5817 129.9 74.0964Z" fill="url(#paint19_linear_17_6040)"/>
<path style="mix-blend-mode:multiply" d="M122.616 73.5536C122.432 75.1618 123.565 76.6053 125.133 76.7894C126.702 76.9734 128.135 75.8206 128.319 74.2124C128.503 72.6042 127.37 71.1608 125.802 70.9767C124.223 70.7926 122.8 71.9455 122.616 73.5536Z" fill="url(#paint20_linear_17_6040)"/>
<path d="M133.287 77.6904C133.287 77.6904 131.554 66.6851 125.104 64.9704C118.655 63.2556 116.321 72.9143 116.321 72.9143C116.321 72.9143 118.451 67.9445 124.63 69.0005C130.798 70.0564 133.287 77.6904 133.287 77.6904Z" fill="url(#paint21_linear_17_6040)"/>
<path d="M133.423 78.1458L132.212 79.3567C132.212 79.3567 133.529 79.6377 133.704 79.2792C133.888 78.9208 133.413 78.1458 133.413 78.1458H133.423Z" fill="#D66C7C"/>
<path d="M131.312 79.3761C131.312 79.3761 126.073 79.5698 121.734 78.1554C117.396 76.741 116.108 74.726 116.108 74.726C116.108 74.726 122.79 78.2523 131.312 79.3761Z" fill="#D66C7C"/>
<path d="M122.286 72.6043C122.538 72.8949 121.221 72.798 120.291 72.2942C119.458 71.8389 119.1 71.2189 119.197 71.1317C119.294 71.0445 121.289 71.4708 122.286 72.6043Z" fill="white"/>
<path d="M123.003 72.9434C123.39 72.8562 123.797 73.1081 123.797 73.3115C123.797 73.515 123.303 73.7087 123.1 73.6022C122.896 73.4956 122.79 72.9918 123.003 72.9434Z" fill="white"/>
<g style="mix-blend-mode:multiply" opacity="0.6">
<path d="M133.423 78.1457C133.423 78.1457 130.053 72.2846 125.007 70.6765C119.962 69.078 117.134 71.7615 117.134 71.7615C117.134 71.7615 118.287 68.0123 124.988 69.3008C131.689 70.5893 133.423 78.1457 133.423 78.1457Z" fill="#C978B1"/>
</g>
<path d="M133.423 78.1457C133.423 78.1457 131.118 70.6571 124.194 69.3298C118.006 68.1479 116.088 73.5537 116.088 73.5537C116.088 73.5537 115.992 68.6129 120.407 67.9639C124.61 67.3438 131.36 70.3664 133.423 78.1457Z" fill="#401432"/>
<path d="M152.723 81.2943C151.667 80.7905 157.807 72.7691 164.934 72.4397C173.553 72.0522 174.144 79.8799 173.844 81.4105C173.543 82.9315 157.778 83.7162 152.723 81.2943Z" fill="url(#paint22_linear_17_6040)"/>
<path d="M168.613 79.0905C169.326 76.0922 167.516 73.0939 164.571 72.3936C161.625 71.6934 158.661 73.5563 157.948 76.5546C157.236 79.5529 159.046 82.5512 161.991 83.2515C164.936 83.9517 167.901 82.0888 168.613 79.0905Z" fill="url(#paint23_linear_17_6040)"/>
<path d="M168.298 79.0056C168.967 76.1842 167.262 73.3628 164.489 72.7038C161.715 72.0449 158.924 73.7979 158.254 76.6194C157.584 79.4408 159.289 82.2622 162.063 82.9212C164.836 83.5801 167.628 81.8271 168.298 79.0056Z" fill="url(#paint24_linear_17_6040)"/>
<path style="mix-blend-mode:multiply" d="M166.581 78.3685C166.271 80.2285 164.538 81.4879 162.717 81.1876C160.896 80.8873 159.666 79.1338 159.976 77.2835C160.286 75.4234 162.02 74.164 163.84 74.4643C165.661 74.7646 166.891 76.5181 166.581 78.3685Z" fill="url(#paint25_linear_17_6040)"/>
<path d="M153.304 79.5601C153.304 79.5601 158.785 67.7895 166.552 67.9445C174.318 68.0995 173.834 79.6667 173.834 79.6667C173.834 79.6667 173.05 73.4084 165.796 72.6043C158.543 71.8002 153.304 79.5601 153.304 79.5601Z" fill="url(#paint26_linear_17_6040)"/>
<path d="M153.014 80.0251L153.972 81.7689C153.972 81.7689 152.413 81.6624 152.326 81.2071C152.239 80.7517 153.014 80.0251 153.014 80.0251Z" fill="#D66C7C"/>
<path d="M154.97 82.079C154.97 82.079 160.77 83.9778 166.087 83.7937C171.403 83.6096 173.485 81.7593 173.485 81.7593C173.485 81.7593 164.867 83.5515 154.97 82.079Z" fill="#D66C7C"/>
<path d="M167.259 77.3998C166.881 77.642 168.382 77.9617 169.592 77.7001C170.677 77.4579 171.268 76.8863 171.19 76.7507C171.113 76.6151 168.74 76.4504 167.249 77.3998H167.259Z" fill="white"/>
<path d="M166.348 77.545C165.942 77.3222 165.399 77.4675 165.341 77.7C165.283 77.9326 165.767 78.3104 166.029 78.2523C166.29 78.1941 166.571 77.671 166.339 77.545H166.348Z" fill="white"/>
<g style="mix-blend-mode:multiply" opacity="0.6">
<path d="M153.013 80.0252C153.013 80.0252 158.679 74.5419 164.838 74.3675C170.997 74.1931 173.301 78.107 173.301 78.107C173.301 78.107 173.214 73.5441 165.302 72.8272C157.391 72.1103 153.013 80.0252 153.013 80.0252Z" fill="#C978B1"/>
</g>
<path d="M153.013 80.0251C153.013 80.0251 158.001 72.3815 166.184 73.1177C173.495 73.7765 173.902 80.4611 173.902 80.4611C173.902 80.4611 175.597 74.9584 170.861 72.8077C166.358 70.7636 157.817 71.9746 153.013 80.0251Z" fill="#401432"/>
<path d="M132.203 88.8798C132.203 88.8798 132.3 89.3932 134.169 89.6936C136.028 90.0036 137.568 91.8636 140.744 92.2705C143.92 92.6774 145.722 91.2436 147.6 91.4083C149.479 91.5827 149.866 91.1273 149.866 91.1273C150.302 89.9358 150.273 88.7248 150.06 87.6591C150.06 87.6591 150.06 87.6301 150.06 87.6204C149.673 85.7506 148.724 84.3556 148.724 84.3556C144.54 81.6333 139.756 81.023 135.03 82.6021C135.03 82.6021 134.217 83.319 133.462 84.4815V84.4912C132.735 85.615 132.057 87.1554 132.222 88.8604L132.203 88.8798Z" fill="url(#paint27_linear_17_6040)"/>
<path d="M136.299 90.5849C136.299 90.5849 135.021 89.1705 133.161 89.4708L136.299 90.5849Z" fill="#812852"/>
<path d="M148.559 91.4568C148.559 91.4568 146.806 90.6818 144.811 91.8927L148.559 91.4568Z" fill="#812852"/>
<g style="mix-blend-mode:multiply" opacity="0.6">
<path d="M132.203 88.8798C132.203 88.8798 132.299 89.3932 134.169 89.6935C136.028 90.0035 137.568 91.8636 140.744 92.2705C143.92 92.6774 145.722 91.2436 147.6 91.4083C149.479 91.5826 149.866 91.1273 149.866 91.1273C150.302 89.9357 150.273 88.7248 150.06 87.6591C150.089 87.9691 150.244 89.9454 149.431 90.3232C148.549 90.7301 143.988 89.8389 141.102 89.4707C138.207 89.1026 133.297 88.4826 132.842 87.6397C132.406 86.8356 133.355 84.685 133.442 84.4912C132.716 85.615 132.038 87.1553 132.203 88.8604V88.8798Z" fill="#C978B1"/>
</g>
<path style="mix-blend-mode:multiply" opacity="0.6" d="M135.011 82.6214C135.011 82.6214 135.631 85.9444 135.224 88.1628C135.224 88.1628 136.27 86.08 135.708 82.4083L135.011 82.6214Z" fill="url(#paint28_linear_17_6040)"/>
<path style="mix-blend-mode:multiply" opacity="0.6" d="M148.549 84.346C148.549 84.346 147.116 87.4073 146.951 89.6548C146.951 89.6548 146.467 87.3782 147.929 83.9681L148.549 84.3556V84.346Z" fill="url(#paint29_linear_17_6040)"/>
<g style="mix-blend-mode:multiply" opacity="0.6">
<path d="M149.421 90.3426C149.421 90.3426 149.798 90.8852 149.857 91.1467C149.915 91.4083 145.208 94.8378 140.492 94.2274C135.776 93.6171 132.222 89.3836 132.203 88.8895C132.174 88.3954 133.026 87.882 133.026 87.882C133.026 87.882 136.638 88.9282 141.093 89.4998C145.547 90.0714 149.421 90.3523 149.421 90.3523V90.3426Z" fill="#C978B1"/>
</g>
<path d="M137.471 87.9206C138.187 87.6203 137.151 86.3706 136.822 86.3706C136.502 86.3706 136.231 87.0681 136.347 87.5525C136.464 88.0369 137.161 88.0466 137.461 87.9206H137.471Z" fill="#FBC9B8"/>
<path d="M136.376 61.9382C136.376 61.9382 134.527 60.8628 129.83 60.1459C128.435 59.9328 126.789 59.7584 124.872 59.6422C116.476 59.1578 110.413 59.9813 110.413 59.9813C110.481 59.8359 113.202 56.484 116.34 55.2052C116.311 55.2439 115.875 55.8155 115.846 56.484C115.846 56.484 119.526 54.3042 124.32 53.8005C125.21 53.7036 126.15 53.6745 127.099 53.723C133.171 54.0427 135.505 58.809 135.505 58.809C135.505 58.809 135.495 57.6368 134.933 56.8812C134.933 56.8812 136.744 58.3828 136.376 61.9285V61.9382Z" fill="url(#paint30_linear_17_6040)"/>
<path style="mix-blend-mode:multiply" opacity="0.6" d="M129.82 60.1555C128.426 59.9424 126.779 59.768 124.862 59.6518C116.466 59.1674 110.404 59.9908 110.404 59.9908C110.472 59.8455 113.193 56.4936 116.33 55.2148C116.301 55.2535 115.866 55.8251 115.837 56.4936C115.837 56.4936 119.516 54.3138 124.31 53.8101C122.567 54.4301 118.761 55.8639 116.35 58.4408C116.35 58.4408 121.047 57.3945 129.811 60.1362L129.82 60.1555Z" fill="url(#paint31_linear_17_6040)"/>
<path d="M155.357 64.1663C155.357 64.1663 157.41 63.5463 162.146 63.9435C163.55 64.0597 165.196 64.2632 167.084 64.6023C175.364 66.0651 181.068 68.2739 181.068 68.2739C181.039 68.1189 179.16 64.2244 176.41 62.2578C176.429 62.2966 176.72 62.9553 176.594 63.6238C176.594 63.6238 173.515 60.6497 168.973 59.0609C168.121 58.7605 167.23 58.5183 166.281 58.344C160.296 57.2493 156.936 61.3472 156.936 61.3472C156.936 61.3472 157.216 60.2137 157.933 59.6034C157.933 59.6034 155.822 60.6497 155.357 64.176V64.1663Z" fill="url(#paint32_linear_17_6040)"/>
<path style="mix-blend-mode:multiply" opacity="0.6" d="M162.146 63.9435C163.55 64.0598 165.196 64.2632 167.084 64.6023C175.364 66.0652 181.068 68.274 181.068 68.274C181.039 68.119 179.16 64.2245 176.41 62.2579C176.43 62.2966 176.72 62.9554 176.594 63.6238C176.594 63.6238 173.515 60.6497 168.973 59.0609C170.532 60.0684 173.902 62.3451 175.645 65.4064C175.645 65.4064 171.326 63.3041 162.155 63.9435H162.146Z" fill="url(#paint33_linear_17_6040)"/>
<g style="mix-blend-mode:multiply" opacity="0.6">
<path d="M131.389 104.632C131.389 104.632 135.156 109.65 140.318 110.251C145.76 110.89 149.421 106.599 149.421 106.599C149.421 106.599 143.572 110.009 131.389 104.622V104.632Z" fill="#CC77B1"/>
</g>
<path d="M157.749 99.8076L158.524 99.1101C158.524 99.1101 158.311 98.7516 158.001 98.7032L157.72 99.4104C156.916 99.6816 155.822 99.9529 155.008 99.7688C152.723 98.9744 147.852 97.4825 141.712 96.7559C135.727 96.0584 130.76 96.349 128.271 96.5912C127.389 96.6978 126.247 96.1165 125.462 95.6321L125.52 94.8668C125.52 94.8668 124.872 94.8668 124.833 95.2253L125.346 96.01C129.123 103.499 136.086 107.403 140.686 107.945C145.77 108.536 150.893 107.015 157.759 99.8076H157.749Z" fill="#822852"/>
<path d="M130.537 103.005C130.537 103.005 140.444 98.771 148.413 106.347C148.413 106.347 144.036 108.498 138.836 107.287C133.636 106.076 131.863 105.388 130.527 102.995L130.537 103.005Z" fill="#DC4D6C"/>
<path d="M131.941 96.4846C131.941 96.4846 136.153 100.331 141.741 100.544C146.506 100.728 151.106 98.5772 151.106 98.5772C151.106 98.5772 142.206 95.4384 131.951 96.4846H131.941Z" fill="#FBDDEA"/>
<path d="M141.867 95.4384C135.65 94.7118 128.232 96.601 128.232 96.601C137.713 96.3975 141.664 97.2113 141.664 97.2113C141.664 97.2113 145.692 97.3372 154.873 99.7301C154.873 99.7301 148.094 96.1747 141.867 95.4481V95.4384Z" fill="#DC4D6C"/>
<path d="M133.587 105.204C133.587 105.204 137.703 105.291 141.015 105.63C144.327 105.969 147.339 106.783 147.339 106.783C147.339 106.783 143.988 107.974 140.444 107.568C135.931 107.044 133.587 105.204 133.587 105.204Z" fill="#FBDDEA"/>
<path d="M140.492 107.18C133.917 106.405 129.607 101.997 129.607 101.997C132.125 107.558 140.308 108.73 140.308 108.73C140.308 108.73 148.404 109.602 152.277 104.651C152.277 104.651 147.067 107.955 140.492 107.18Z" fill="#ED7072"/>
<path d="M194.209 88.5989C193.841 89.4998 193.464 90.2942 193.096 91.0111L193.076 91.0499C190.413 96.1166 187.643 96.9109 186.181 99.1391C184.913 101.067 180.671 104.632 178.066 99.6235L178.056 99.6041C178.056 99.6041 182.995 82.1081 184.903 79.1242C184.903 79.1242 187.692 74.6291 191.227 74.5225C195.768 74.3869 197.453 80.6549 194.209 88.6085V88.5989Z" fill="url(#paint34_linear_17_6040)"/>
<path style="mix-blend-mode:multiply" opacity="0.6" d="M181.291 88.7829C181.291 88.7829 189.977 80.1317 193.367 80.0833C196.756 80.0445 193.551 88.1629 192.369 90.8464C191.188 93.5299 189.9 95.0024 189.9 95.0024C189.9 95.0024 191.343 91.8442 192.001 89.1898C192.95 85.3825 192.34 81.8464 190.907 81.9046C189.474 81.9627 186.733 86.4578 186.51 86.9906C186.288 87.5235 187.13 88.6957 186.51 91.6795C185.891 94.6633 183.857 97.6375 183.092 97.4534C182.327 97.2694 183.111 94.9152 183.625 92.1155C184.147 89.3157 181.862 89.461 180.555 91.0886L181.281 88.7732L181.291 88.7829Z" fill="url(#paint35_linear_17_6040)"/>
<path style="mix-blend-mode:multiply" opacity="0.6" d="M180.564 91.1079C180.564 91.1079 182.811 88.7732 183.644 90.1779C184.477 91.5826 183.092 94.7893 183.828 95.3415C184.564 95.8937 186.152 93.3845 186.394 90.8754C186.646 88.3566 186.075 85.954 184.603 86.109L181.291 88.7925L180.564 91.1079Z" fill="url(#paint36_linear_17_6040)"/>
<path style="mix-blend-mode:multiply" d="M193.076 91.0498C190.413 96.1165 187.643 96.9109 186.181 99.1391C184.913 101.067 180.671 104.632 178.066 99.6235C178.24 99.8269 179.916 101.803 182.065 101.454C184.331 101.077 185.368 99.2263 186.559 97.8603C187.731 96.4943 190.229 95.8646 193.086 91.0595L193.076 91.0498Z" fill="url(#paint37_linear_17_6040)"/>
<defs>
<linearGradient id="paint0_linear_17_6040" x1="57.7711" y1="134.926" x2="68.0265" y2="134.926" gradientUnits="userSpaceOnUse">
<stop stop-color="#F8A795"/>
<stop offset="0.43" stop-color="#F8A997"/>
<stop offset="0.52" stop-color="#F7A290"/>
<stop offset="0.76" stop-color="#F69684"/>
<stop offset="1" stop-color="#F69280"/>
</linearGradient>
<linearGradient id="paint1_linear_17_6040" x1="0.49994" y1="116.461" x2="95.258" y2="116.461" gradientUnits="userSpaceOnUse">
<stop stop-color="#F8A795"/>
<stop offset="0.43" stop-color="#F8A997"/>
<stop offset="0.52" stop-color="#F7A290"/>
<stop offset="0.76" stop-color="#F69684"/>
<stop offset="1" stop-color="#F69280"/>
</linearGradient>
<linearGradient id="paint2_linear_17_6040" x1="1.74922" y1="69.4752" x2="32.2345" y2="69.4752" gradientUnits="userSpaceOnUse">
<stop stop-color="#F8A795"/>
<stop offset="0.43" stop-color="#F8A997"/>
<stop offset="0.52" stop-color="#F7A290"/>
<stop offset="0.76" stop-color="#F69684"/>
<stop offset="1" stop-color="#F69280"/>
</linearGradient>
<linearGradient id="paint3_linear_17_6040" x1="68.4914" y1="188.247" x2="162.581" y2="188.247" gradientUnits="userSpaceOnUse">
<stop stop-color="#F8A795"/>
<stop offset="0.43" stop-color="#F8A997"/>
<stop offset="0.52" stop-color="#F7A290"/>
<stop offset="0.76" stop-color="#F69684"/>
<stop offset="1" stop-color="#F69280"/>
</linearGradient>
<linearGradient id="paint4_linear_17_6040" x1="61.3155" y1="143.645" x2="91.5974" y2="143.645" gradientUnits="userSpaceOnUse">
<stop stop-color="#F8A795"/>
<stop offset="0.43" stop-color="#F8A997"/>
<stop offset="0.52" stop-color="#F7A290"/>
<stop offset="0.76" stop-color="#F69684"/>
<stop offset="1" stop-color="#F69280"/>
</linearGradient>
<linearGradient id="paint5_linear_17_6040" x1="20.6426" y1="69.6689" x2="40.1462" y2="69.6689" gradientUnits="userSpaceOnUse">
<stop stop-color="#F8A795"/>
<stop offset="0.43" stop-color="#F8A997"/>
<stop offset="0.52" stop-color="#F7A290"/>
<stop offset="0.76" stop-color="#F69684"/>
<stop offset="1" stop-color="#F69280"/>
</linearGradient>
<linearGradient id="paint6_linear_17_6040" x1="1.26492" y1="56.7649" x2="10.8811" y2="56.7649" gradientUnits="userSpaceOnUse">
<stop stop-color="#F8A795"/>
<stop offset="0.43" stop-color="#F8A997"/>
<stop offset="0.52" stop-color="#F7A290"/>
<stop offset="0.76" stop-color="#F69684"/>
<stop offset="1" stop-color="#F69280"/>
</linearGradient>
<linearGradient id="paint7_linear_17_6040" x1="21.8434" y1="58.2664" x2="31.4597" y2="58.2664" gradientUnits="userSpaceOnUse">
<stop stop-color="#F8A795"/>
<stop offset="0.43" stop-color="#F8A997"/>
<stop offset="0.52" stop-color="#F7A290"/>
<stop offset="0.76" stop-color="#F69684"/>
<stop offset="1" stop-color="#F69280"/>
</linearGradient>
<linearGradient id="paint8_linear_17_6040" x1="8.33434" y1="58.0533" x2="17.9506" y2="58.0533" gradientUnits="userSpaceOnUse">
<stop stop-color="#F8A795"/>
<stop offset="0.43" stop-color="#F8A997"/>
<stop offset="0.52" stop-color="#F7A290"/>
<stop offset="0.76" stop-color="#F69684"/>
<stop offset="1" stop-color="#F69280"/>
</linearGradient>
<linearGradient id="paint9_linear_17_6040" x1="14.9872" y1="58.7024" x2="24.6034" y2="58.7024" gradientUnits="userSpaceOnUse">
<stop stop-color="#F8A795"/>
<stop offset="0.43" stop-color="#F8A997"/>
<stop offset="0.52" stop-color="#F7A290"/>
<stop offset="0.76" stop-color="#F69684"/>
<stop offset="1" stop-color="#F69280"/>
</linearGradient>
<linearGradient id="paint10_linear_17_6040" x1="144.665" y1="127.687" x2="150.714" y2="76.0564" gradientUnits="userSpaceOnUse">
<stop stop-color="#31111B"/>
<stop offset="1" stop-color="#1A0F21"/>
</linearGradient>
<linearGradient id="paint11_linear_17_6040" x1="107" y1="127.937" x2="179.715" y2="136.45" gradientUnits="userSpaceOnUse">
<stop stop-color="#F9AF9C"/>
<stop offset="0.2" stop-color="#F69B8E"/>
<stop offset="0.47" stop-color="#F48781"/>
<stop offset="0.73" stop-color="#F37B79"/>
<stop offset="1" stop-color="#F37777"/>
</linearGradient>
<linearGradient id="paint12_linear_17_6040" x1="110.51" y1="67.4735" x2="191.804" y2="76.991" gradientUnits="userSpaceOnUse">
<stop stop-color="#F8A795"/>
<stop offset="0.43" stop-color="#F8A997"/>
<stop offset="0.52" stop-color="#F7A290"/>
<stop offset="0.76" stop-color="#F69684"/>
<stop offset="1" stop-color="#F69280"/>
</linearGradient>
<linearGradient id="paint13_linear_17_6040" x1="155.388" y1="-7.37773" x2="143.523" y2="93.883" gradientUnits="userSpaceOnUse">
<stop stop-color="#010101"/>
<stop offset="0.35" stop-color="#010101"/>
<stop offset="1" stop-color="#1A0F21"/>
</linearGradient>
<linearGradient id="paint14_linear_17_6040" x1="84.8511" y1="42.872" x2="212.41" y2="57.8058" gradientUnits="userSpaceOnUse">
<stop stop-color="#31111B"/>
<stop offset="1" stop-color="#1A0F21"/>
</linearGradient>
<linearGradient id="paint15_linear_17_6040" x1="153.646" y1="33.6483" x2="146.368" y2="95.7672" gradientUnits="userSpaceOnUse">
<stop stop-color="#31111B"/>
<stop offset="1" stop-color="#1A0F21"/>
</linearGradient>
<linearGradient id="paint16_linear_17_6040" x1="124.588" y1="13.5156" x2="156.963" y2="17.3059" gradientUnits="userSpaceOnUse">
<stop stop-color="#31111B"/>
<stop offset="1" stop-color="#1A0F21"/>
</linearGradient>
<linearGradient id="paint17_linear_17_6040" x1="124.749" y1="79.2518" x2="125.058" y2="68.716" gradientUnits="userSpaceOnUse">
<stop stop-color="#E6DBEC"/>
<stop offset="1" stop-color="#B8C1E2"/>
</linearGradient>
<linearGradient id="paint18_linear_17_6040" x1="124.967" y1="78.4756" x2="126.063" y2="68.9574" gradientUnits="userSpaceOnUse">
<stop stop-color="#48204B"/>
<stop offset="1" stop-color="#301138"/>
</linearGradient>
<linearGradient id="paint19_linear_17_6040" x1="124.998" y1="78.2061" x2="126.031" y2="69.2462" gradientUnits="userSpaceOnUse">
<stop stop-color="#57345B"/>
<stop offset="1" stop-color="#301138"/>
</linearGradient>
<linearGradient id="paint20_linear_17_6040" x1="125.191" y1="76.8505" x2="125.859" y2="71.0374" gradientUnits="userSpaceOnUse">
<stop stop-color="#A093B6"/>
<stop offset="0.99" stop-color="#734B61"/>
</linearGradient>
<linearGradient id="paint21_linear_17_6040" x1="134.005" y1="71.9064" x2="116.727" y2="69.9202" gradientUnits="userSpaceOnUse">
<stop stop-color="#F7A190"/>
<stop offset="0.43" stop-color="#F3A592"/>
<stop offset="0.51" stop-color="#F39F8D"/>
<stop offset="0.76" stop-color="#F49383"/>
<stop offset="1" stop-color="#F58F80"/>
</linearGradient>
<linearGradient id="paint22_linear_17_6040" x1="162.584" y1="83.8476" x2="165.627" y2="71.9468" gradientUnits="userSpaceOnUse">
<stop stop-color="#E6DBEC"/>
<stop offset="1" stop-color="#B8C1E2"/>
</linearGradient>
<linearGradient id="paint23_linear_17_6040" x1="162.396" y1="83.2493" x2="164.229" y2="72.2505" gradientUnits="userSpaceOnUse">
<stop stop-color="#48204B"/>
<stop offset="1" stop-color="#301138"/>
</linearGradient>
<linearGradient id="paint24_linear_17_6040" x1="162.44" y1="83.112" x2="164.164" y2="72.7532" gradientUnits="userSpaceOnUse">
<stop stop-color="#57345B"/>
<stop offset="1" stop-color="#301138"/>
</linearGradient>
<linearGradient id="paint25_linear_17_6040" x1="162.749" y1="81.0773" x2="163.869" y2="74.3596" gradientUnits="userSpaceOnUse">
<stop stop-color="#A093B6"/>
<stop offset="0.99" stop-color="#734B61"/>
</linearGradient>
<linearGradient id="paint26_linear_17_6040" x1="154.464" y1="72.7035" x2="174.457" y2="76.0336" gradientUnits="userSpaceOnUse">
<stop stop-color="#F7A190"/>
<stop offset="0.43" stop-color="#F3A592"/>
<stop offset="0.51" stop-color="#F39F8D"/>
<stop offset="0.76" stop-color="#F49383"/>
<stop offset="1" stop-color="#F58F80"/>
</linearGradient>
<linearGradient id="paint27_linear_17_6040" x1="140.735" y1="92.1273" x2="142.066" y2="81.73" gradientUnits="userSpaceOnUse">
<stop stop-color="#F37B7F"/>
<stop offset="0.4" stop-color="#F3817F"/>
<stop offset="1" stop-color="#F48680"/>
</linearGradient>
<linearGradient id="paint28_linear_17_6040" x1="134.912" y1="87.9636" x2="135.644" y2="82.2461" gradientUnits="userSpaceOnUse">
<stop stop-color="#FBE3D4"/>
<stop offset="0.99" stop-color="#AE7CB7"/>
</linearGradient>
<linearGradient id="paint29_linear_17_6040" x1="147.265" y1="89.5235" x2="147.996" y2="83.806" gradientUnits="userSpaceOnUse">
<stop stop-color="#FBE3D4"/>
<stop offset="0.99" stop-color="#AE7CB7"/>
</linearGradient>
<linearGradient id="paint30_linear_17_6040" x1="124.123" y1="54.7985" x2="123.418" y2="60.8122" gradientUnits="userSpaceOnUse">
<stop stop-color="#31111B"/>
<stop offset="1" stop-color="#1A0F21"/>
</linearGradient>
<linearGradient id="paint31_linear_17_6040" x1="110.861" y1="56.1416" x2="130.031" y2="58.3858" gradientUnits="userSpaceOnUse">
<stop stop-color="#31111B"/>
<stop offset="1" stop-color="#1A0F21"/>
</linearGradient>
<linearGradient id="paint32_linear_17_6040" x1="168.95" y1="59.9005" x2="168.245" y2="65.9142" gradientUnits="userSpaceOnUse">
<stop stop-color="#31111B"/>
<stop offset="1" stop-color="#1A0F21"/>
</linearGradient>
<linearGradient id="paint33_linear_17_6040" x1="162.358" y1="62.1752" x2="181.527" y2="64.4194" gradientUnits="userSpaceOnUse">
<stop stop-color="#31111B"/>
<stop offset="1" stop-color="#1A0F21"/>
</linearGradient>
<linearGradient id="paint34_linear_17_6040" x1="183.161" y1="111.47" x2="188.865" y2="80.8508" gradientUnits="userSpaceOnUse">
<stop stop-color="#F7A190"/>
<stop offset="0.43" stop-color="#F3A592"/>
<stop offset="0.51" stop-color="#F39F8D"/>
<stop offset="0.76" stop-color="#F49383"/>
<stop offset="1" stop-color="#F58F80"/>
</linearGradient>
<linearGradient id="paint35_linear_17_6040" x1="184.645" y1="103.498" x2="188.57" y2="82.4315" gradientUnits="userSpaceOnUse">
<stop stop-color="#F7A190"/>
<stop offset="0.43" stop-color="#F3A592"/>
<stop offset="0.51" stop-color="#F39F8D"/>
<stop offset="0.76" stop-color="#F49383"/>
<stop offset="1" stop-color="#F58F80"/>
</linearGradient>
<linearGradient id="paint36_linear_17_6040" x1="182.724" y1="95.1384" x2="184.429" y2="85.986" gradientUnits="userSpaceOnUse">
<stop stop-color="#F7A190"/>
<stop offset="0.43" stop-color="#F3A592"/>
<stop offset="0.51" stop-color="#F39F8D"/>
<stop offset="0.76" stop-color="#F49383"/>
<stop offset="1" stop-color="#F58F80"/>
</linearGradient>
<linearGradient id="paint37_linear_17_6040" x1="191.88" y1="97.4645" x2="178.913" y2="95.0504" gradientUnits="userSpaceOnUse">
<stop stop-color="#F7A190"/>
<stop offset="0.43" stop-color="#F3A592"/>
<stop offset="0.51" stop-color="#F39F8D"/>
<stop offset="0.76" stop-color="#F49383"/>
<stop offset="1" stop-color="#F58F80"/>
</linearGradient>
</defs>
</svg>
