<svg width="350" height="743" viewBox="0 0 350 743" fill="none" xmlns="http://www.w3.org/2000/svg">
<path d="M129.557 79.6636C129.574 81.9245 128.066 116.078 131.339 121.726C131.339 121.726 171.595 126.413 172.829 121.312C173.194 119.805 179.409 78.0984 179.409 78.0984L129.557 79.6719V79.6636Z" fill="url(#paint0_linear_1_2)"/>
<path d="M180.834 63.15C180.627 73.941 175.829 107.954 176.55 119.092C176.55 119.092 183.113 118.86 186.303 105.916C189.493 92.9721 191.068 75.0673 187.77 68.765C184.464 62.4709 179.417 59.9533 179.417 59.9533L180.842 63.1418L180.834 63.15Z" fill="url(#paint1_linear_1_2)"/>
<path d="M188.872 55.8209C194.499 67.8375 191.88 115.159 189.361 120.244C186.842 125.328 182.69 124.351 182.251 123.2C181.903 122.297 185.516 92.0198 185.541 75.5726C185.541 71.175 185.301 67.7713 184.646 66.1729L188.864 55.8209H188.872Z" fill="url(#paint2_linear_1_2)"/>
<path d="M177.263 72.3096C173.666 94.6202 170.542 117.701 172.821 121.312C175.1 124.914 178.415 115.689 180.842 100.724C182.259 91.9536 184.795 71.1833 184.795 71.1833L177.263 72.3096V72.3096Z" fill="url(#paint3_linear_1_2)"/>
<path d="M115.918 72.5084C112.322 85.6099 110.018 106.057 112.065 117.643C112.951 122.678 114.476 124.401 116.755 123.838C119.034 123.275 123.682 115.184 122.87 103.829C122.058 92.4671 126.906 69.8914 126.906 69.8914L115.918 72.5084Z" fill="url(#paint4_linear_1_2)"/>
<path d="M131.074 103.829C131.886 115.192 127.237 123.275 124.958 123.838C122.68 124.401 123.749 123.117 122.862 118.082C122.108 113.825 121.594 108.31 121.42 102.388C121.122 92.1938 121.843 80.79 124.121 72.5001L135.109 69.8831C135.109 69.8831 130.262 92.4588 131.074 103.821V103.829Z" fill="url(#paint5_linear_1_2)"/>
<path style="mix-blend-mode:multiply" d="M131.074 103.829C129.508 98.6038 122.182 102.123 121.42 102.397C121.122 92.2021 121.843 80.7983 124.121 72.5084L135.109 69.8914C135.109 69.8914 130.262 92.4671 131.074 103.829V103.829Z" fill="url(#paint6_linear_1_2)"/>
<path d="M118.578 55.738C108.244 76.4006 105.833 111.821 106.562 117.651C107.292 123.482 110.175 125.958 111.609 124.914C113.034 123.871 113.283 103.995 116.879 94.1895C119.332 87.4897 121.229 72.4669 122.191 63.6221C122.63 59.5227 122.87 56.7484 122.87 56.7484L118.586 55.738H118.578Z" fill="url(#paint7_linear_1_2)"/>
<path d="M115.918 68.8809C112.321 88.0611 106.562 117.643 106.562 117.643C106.562 117.643 98.8641 76.7319 101.59 67.5476C104.308 58.3632 113.457 48.5661 113.457 48.5661L115.918 68.8726V68.8809Z" fill="url(#paint8_linear_1_2)"/>
<path style="mix-blend-mode:multiply" d="M184.795 71.175C184.795 71.175 183.511 81.7257 182.259 90.968C181.754 94.6865 181.257 98.1979 180.851 100.715C178.431 115.68 175.116 124.906 172.829 121.304C171.57 119.308 171.959 111.366 173.169 100.889C174.147 92.4173 175.655 82.2806 177.271 72.3013L184.795 71.175V71.175Z" fill="url(#paint9_linear_1_2)"/>
<path style="mix-blend-mode:multiply" d="M184.795 71.175C184.795 71.175 183.511 81.7257 182.259 90.968C176.219 89.7341 173.169 100.889 173.169 100.889C174.147 92.4173 175.655 82.2806 177.271 72.3013L184.795 71.175Z" fill="url(#paint10_linear_1_2)"/>
<path d="M196.694 62.9431C196.553 63.8209 196.396 64.6159 196.23 65.3199V65.353C195.012 70.4048 193.173 71.5973 192.435 73.8748C191.797 75.8458 189.286 79.7961 186.8 75.6885L186.792 75.6802C186.792 75.6802 187.969 58.9513 188.922 55.912C188.922 55.912 190.297 51.3488 192.758 50.6614C195.932 49.7753 197.929 55.1749 196.694 62.9513V62.9431Z" fill="url(#paint11_linear_1_2)"/>
<path style="mix-blend-mode:multiply" opacity="0.6" d="M187.654 65.2952C187.654 65.2952 192.617 55.9618 194.987 55.3489C197.357 54.7361 196.172 62.6533 195.7 65.2952C195.219 67.937 194.507 69.4939 194.507 69.4939C194.507 69.4939 195.103 66.3801 195.219 63.8625C195.385 60.2434 194.498 57.1295 193.504 57.4276C192.509 57.7258 191.167 62.2724 191.084 62.7941C191.001 63.3159 191.747 64.2351 191.697 67.0509C191.656 69.8666 190.62 72.9143 190.057 72.8811C189.493 72.848 189.734 70.5706 189.734 67.937C189.734 65.3035 188.151 65.8169 187.446 67.5229L187.654 65.2952V65.2952Z" fill="url(#paint12_linear_1_2)"/>
<path style="mix-blend-mode:multiply" opacity="0.6" d="M187.446 67.5229C187.446 67.5229 188.723 65.0219 189.485 66.1564C190.247 67.291 189.7 70.438 190.289 70.819C190.877 71.1999 191.664 68.6492 191.507 66.3221C191.358 63.9949 190.637 61.908 189.626 62.2972L187.645 65.2951L187.438 67.5229H187.446Z" fill="url(#paint13_linear_1_2)"/>
<path style="mix-blend-mode:multiply" d="M196.214 65.3531C195.004 70.4049 193.172 71.5975 192.435 73.8749C191.797 75.8459 189.286 79.7963 186.8 75.6886C186.949 75.8459 188.383 77.3615 189.841 76.6741C191.383 75.9453 191.871 74.0902 192.518 72.6492C193.164 71.2082 194.83 70.2227 196.214 65.3614V65.3531Z" fill="url(#paint14_linear_1_2)"/>
<path d="M155.751 86.7363L160.872 120.393L186.975 121.105L165.62 153.569L108.104 129.436L129.392 123.44L126.608 77.759L155.751 86.7363Z" fill="url(#paint15_linear_1_2)"/>
<path d="M144.108 5.49352C144.108 5.49352 182.201 6.86827 188.598 51.3571C194.996 95.8459 162.463 106.852 141.374 103.233C120.285 99.6141 106.33 76.7982 103.496 63.5476C100.662 50.2971 109.545 5.94073 144.1 5.49352H144.108Z" fill="url(#paint16_linear_1_2)"/>
<path d="M95.0772 63.6387C95.3092 64.765 95.5744 65.7837 95.8561 66.6947L95.8727 66.7361C97.8863 73.2206 100.936 74.7527 102.17 77.6761C103.231 80.202 107.416 85.2869 111.551 80.0032C111.559 80.0032 111.567 79.9866 111.567 79.9866C111.567 79.9866 109.603 58.4959 108.021 54.5952C108.021 54.5952 105.734 48.7401 101.632 47.854C96.3533 46.7111 93.0221 53.6511 95.0855 63.6387H95.0772Z" fill="url(#paint17_linear_1_2)"/>
<path style="mix-blend-mode:multiply" opacity="0.6" d="M110.134 66.6697C110.134 66.6697 101.872 54.6779 97.9193 53.8995C93.9666 53.1127 95.9471 63.2825 96.7426 66.6697C97.5381 70.0569 98.7231 72.061 98.7231 72.061C98.7231 72.061 97.7287 68.061 97.5298 64.8229C97.2481 60.1686 98.7314 56.1769 100.389 56.5579C102.046 56.9388 104.275 62.7856 104.424 63.4482C104.565 64.1107 103.33 65.3032 103.397 68.914C103.471 72.5248 105.195 76.4503 106.131 76.4006C107.068 76.3509 106.67 73.4275 106.67 70.0569C106.67 66.6863 109.305 67.3405 110.473 69.5269L110.134 66.6697V66.6697Z" fill="url(#paint18_linear_1_2)"/>
<path style="mix-blend-mode:multiply" opacity="0.6" d="M110.473 69.527C110.473 69.527 108.352 66.3137 107.076 67.7713C105.8 69.2288 106.72 73.2785 105.742 73.7589C104.764 74.2475 103.455 70.9763 103.712 67.9866C103.968 64.9969 105.153 62.3137 106.844 62.8189L110.134 66.6698L110.473 69.527V69.527Z" fill="url(#paint19_linear_1_2)"/>
<path style="mix-blend-mode:multiply" d="M95.8727 66.7443C97.8863 73.2289 100.936 74.7609 102.17 77.6844C103.231 80.2103 107.416 85.2952 111.551 80.0115C111.302 80.2185 108.907 82.1564 106.488 81.2786C103.927 80.3428 103.115 77.9577 102.03 76.1026C100.952 74.2475 98.1763 72.9804 95.881 66.7443H95.8727Z" fill="url(#paint20_linear_1_2)"/>
<path d="M165.96 62.3469C165.96 62.3469 168.437 50.3054 175.63 48.7485C182.823 47.1915 184.911 57.9493 184.911 57.9493C184.911 57.9493 182.815 52.3592 175.953 53.204C169.092 54.0487 165.96 62.3386 165.96 62.3386V62.3469Z" fill="url(#paint21_linear_1_2)"/>
<path d="M165.794 62.8355C165.794 62.8355 168.719 54.703 176.426 53.5932C183.303 52.5994 185.143 58.6616 185.143 58.6616C185.143 58.6616 185.499 53.2206 180.668 52.2765C176.069 51.3821 168.462 54.3634 165.794 62.8272V62.8355Z" fill="#401432"/>
<path d="M142.766 62.3468C142.766 62.3468 140.288 50.3053 133.096 48.7484C125.903 47.1915 123.815 57.9493 123.815 57.9493C123.815 57.9493 125.911 52.3592 132.772 53.2039C139.634 54.0486 142.766 62.3385 142.766 62.3385V62.3468Z" fill="url(#paint22_linear_1_2)"/>
<path d="M142.94 62.8355C142.94 62.8355 140.015 54.7029 132.308 53.5932C125.431 52.5994 123.591 58.6615 123.591 58.6615C123.591 58.6615 123.235 53.2205 128.066 52.2764C132.665 51.382 140.272 54.3634 142.94 62.8272V62.8355Z" fill="#401432"/>
<path d="M165.148 73.966C165.148 73.966 164.965 74.5126 162.885 74.5871C160.797 74.6699 158.858 76.4836 155.32 76.4836C151.782 76.4836 150.017 74.6699 147.928 74.5871C145.84 74.5126 145.492 73.966 145.492 73.966C145.186 72.6078 145.376 71.2827 145.766 70.1482C145.766 70.1482 145.774 70.115 145.774 70.1068C146.462 68.1192 147.696 66.7196 147.696 66.7196C152.66 64.3262 157.98 64.3262 162.943 66.7196C162.943 66.7196 163.739 67.614 164.402 68.997V69.0136C165.048 70.3469 165.57 72.1192 165.139 73.9743L165.148 73.966Z" fill="url(#paint23_linear_1_2)"/>
<path d="M160.416 75.2579C160.416 75.2579 162.015 73.8831 164.004 74.4794L160.416 75.2579Z" fill="#812852"/>
<path d="M146.859 74.4878C146.859 74.4878 148.881 73.8832 150.903 75.4981L146.859 74.4878Z" fill="#812852"/>
<g style="mix-blend-mode:multiply" opacity="0.6">
<path d="M165.148 73.9659C165.148 73.9659 164.965 74.5125 162.885 74.587C160.797 74.6698 158.858 76.4835 155.32 76.4835C151.782 76.4835 150.016 74.6698 147.928 74.587C145.84 74.5125 145.492 73.9659 145.492 73.9659C145.185 72.6077 145.376 71.2826 145.766 70.148C145.691 70.4793 145.252 72.6325 146.08 73.1543C146.984 73.7174 152.105 73.3862 155.32 73.3862C158.535 73.3862 164.004 73.3944 164.626 72.5414C165.214 71.7215 164.476 69.2371 164.41 69.0135C165.056 70.3468 165.579 72.1191 165.148 73.9741V73.9659Z" fill="#C978B1"/>
</g>
<path style="mix-blend-mode:multiply" opacity="0.6" d="M162.943 66.7196C162.943 66.7196 161.8 70.2641 161.933 72.7486C161.933 72.7486 161.079 70.3221 162.214 66.3883L162.943 66.7196Z" fill="url(#paint24_linear_1_2)"/>
<path style="mix-blend-mode:multiply" opacity="0.6" d="M147.879 66.7196C147.879 66.7196 149.022 70.2641 148.889 72.7486C148.889 72.7486 149.743 70.3221 148.608 66.3883L147.879 66.7196Z" fill="url(#paint25_linear_1_2)"/>
<g style="mix-blend-mode:multiply" opacity="0.6">
<path d="M146.08 73.146C146.08 73.146 145.592 73.6844 145.492 73.9659C145.393 74.2392 150.066 78.6533 155.32 78.6533C160.574 78.6533 165.048 74.5042 165.148 73.9659C165.247 73.4276 164.385 72.7485 164.385 72.7485C164.385 72.7485 160.284 73.3862 155.32 73.3862C150.356 73.3862 146.08 73.1543 146.08 73.1543V73.146Z" fill="#C978B1"/>
</g>
<path d="M159.513 72.1772C158.767 71.7548 160.085 70.5209 160.433 70.5705C160.789 70.6202 160.98 71.4153 160.789 71.9287C160.598 72.4422 159.828 72.3511 159.513 72.1772V72.1772Z" fill="#FBC9B8"/>
<g style="mix-blend-mode:multiply">
<path d="M164.709 51.5476C164.709 51.5476 166.896 46.471 170.136 43.1418L169.175 45.4523C169.175 45.4523 170.12 44.5082 171.553 43.7298C172.987 42.9513 183.809 41.8167 185.98 42.2059L185.632 41.2536C185.632 41.2536 189.411 44.4668 191.93 51.1087C191.93 51.1087 189.145 47.9782 187.322 47.6801C185.499 47.3737 168.86 49.8747 164.709 52.7236V51.5393V51.5476Z" fill="#010101"/>
<path d="M144.605 51.5476C144.605 51.5476 142.418 46.471 139.178 43.1418L140.139 45.4524C140.139 45.4524 139.194 44.5083 137.761 43.7298C136.327 42.9513 125.505 41.8167 123.334 42.206L123.682 41.2536C123.682 41.2536 119.903 44.4669 117.384 51.1087C117.384 51.1087 120.169 47.9783 121.992 47.6801C123.815 47.3737 140.454 49.8747 144.605 52.7236V51.5394V51.5476Z" fill="#010101"/>
</g>
<path d="M106.073 74.3799C106.824 74.3799 107.432 73.3009 107.432 71.9699C107.432 70.639 106.824 69.56 106.073 69.56C105.323 69.56 104.714 70.639 104.714 71.9699C104.714 73.3009 105.323 74.3799 106.073 74.3799Z" fill="white"/>
<g style="mix-blend-mode:multiply" opacity="0.4">
<path d="M146.263 93.8748C146.263 93.8748 151.318 98.4215 155.328 98.496C159.339 98.5705 164.999 92.1523 164.999 92.1523C164.999 92.1523 156.447 100.972 146.263 93.8748V93.8748Z" fill="#CC78B1"/>
</g>
<path d="M139.186 84.8065C139.186 84.8065 144.606 97.643 155.726 96.8149C167.236 95.9536 170.294 82.5208 170.294 82.5208L155.395 89.6181L139.186 84.8065V84.8065Z" fill="#F26665"/>
<path d="M154.724 83.3985C168.371 82.3716 170.824 81.6263 171.23 81.3281C170.957 81.9493 169.689 84.6242 167.029 87.1832C164.51 89.6015 160.748 91.9203 155.403 92.3178C150.39 92.6905 146.603 91.3737 143.86 89.6512C140.015 87.2412 138.233 84.0694 138.051 83.7215C138.2 83.8789 139.708 84.5248 154.74 83.3985H154.724Z" fill="#731C55"/>
<g style="mix-blend-mode:multiply" opacity="0.6">
<path d="M154.724 83.3985C168.371 82.3716 170.824 81.6263 171.23 81.3281C170.957 81.9493 169.689 84.6242 167.029 87.1832C167.211 86.1977 167.104 85.4772 166.573 85.1791C164.85 84.2101 160.317 86.4213 155.212 88.1439C151.434 89.4193 137.222 81.6428 143.852 89.6512C140.007 87.2412 138.225 84.0694 138.043 83.7215C138.192 83.8789 139.7 84.5248 154.732 83.3985H154.724Z" fill="#CC78B1"/>
</g>
<path d="M161.469 79.9286C157.557 79.6553 151.359 80.1191 147.539 80.9721C143.719 81.8251 138.764 83.9203 138.764 83.9203C138.764 83.9203 146.42 84.5497 154.74 83.6305C163.101 83.2909 170.576 81.5849 170.576 81.5849C170.576 81.5849 165.372 80.2019 161.469 79.9286V79.9286Z" fill="#D74058"/>
<path d="M142.393 84.0943C142.393 84.0943 147.73 86.3387 154.773 85.8086C161.817 85.2786 167.104 82.2641 167.104 82.2641C167.104 82.2641 161.659 82.8769 154.458 83.4152C147.266 83.9535 142.385 84.0943 142.385 84.0943H142.393Z" fill="#FBDBE9"/>
<path d="M169.449 80.3841C169.449 80.3841 172.175 81.734 172.788 83.1419C172.788 83.1419 172.208 80.5249 171.28 79.9203C170.352 79.3158 169.449 80.3841 169.449 80.3841Z" fill="#D86B7C"/>
<path d="M139.932 82.5952C139.932 82.5952 137.438 84.3344 137.04 85.8168C137.04 85.8168 137.222 83.1501 138.043 82.4048C138.871 81.6677 139.924 82.587 139.924 82.587L139.932 82.5952Z" fill="#D86B7C"/>
<path d="M145.252 90.4463C149.039 86.2392 154.417 87.556 154.417 87.556C160.068 85.4193 164.195 89.4194 164.195 89.4194C164.195 89.4194 160.789 92.0778 154.342 92.3014C148.393 92.5001 145.244 90.4463 145.244 90.4463H145.252Z" fill="#BE2741"/>
<g style="mix-blend-mode:soft-light">
<path d="M160.557 91.9369C160.557 91.9369 161.593 92.5001 162.173 93.6595L162.944 93.1875C162.944 93.1875 162.993 92.5084 161.668 91.4649L160.557 91.9452V91.9369Z" fill="#FBDBE9"/>
</g>
<g style="mix-blend-mode:soft-light">
<path d="M162.107 91.4234C162.107 91.4234 163.101 91.8458 163.292 92.9472L163.507 92.674C163.507 92.674 163.159 91.5145 162.214 91.4151H162.115L162.107 91.4234Z" fill="#FBDBE9"/>
</g>
<path d="M146.52 91.0674C146.52 91.0674 152.925 91.1005 162.728 90.2807C162.728 90.2807 155.212 94.5457 146.52 91.0674Z" fill="#FBDBE9"/>
<path d="M165.454 8.72321C171.644 9.29464 179.914 15.3237 180.743 18.1477C181.58 20.9717 171.876 21.7833 171.876 21.7833C171.876 21.7833 169.067 19.3899 167.692 17.6591C166.316 15.9282 165.446 8.73149 165.446 8.73149L165.454 8.72321Z" fill="url(#paint26_linear_1_2)"/>
<path d="M167.7 17.6591C167.7 17.6591 171.81 9.73362 168.86 7.82057C161.51 3.05864 147.257 3.96134 147.257 3.96134L136.476 8.52451L140.761 12.1519C140.761 12.1519 152.196 12.5411 157.392 13.4272C162.587 14.3216 162.38 17.9904 162.38 17.9904C162.38 17.9904 165.753 20.7399 167.7 17.6508V17.6591Z" fill="url(#paint27_linear_1_2)"/>
<path d="M141.307 0.242943C149.088 2.34647 162.413 13.626 164.427 20.889C164.427 20.889 160.018 21.8083 154.856 19.2244C154.856 19.2244 145.078 12.3589 141.97 10.6861C138.855 9.01317 122.041 11.9697 114.368 15.332C106.687 18.6861 94.1905 61.6511 94.1905 61.6511C94.1905 61.6511 89.8152 40.1603 92.4503 31.2493C95.0937 22.3383 97.6294 11.7792 100.455 9.72539C103.281 7.67155 134.338 -1.63698 141.316 0.251225L141.307 0.242943Z" fill="url(#paint28_linear_1_2)"/>
<path d="M160.027 20.6736C156.853 15.862 146.014 7.15803 140.562 6.10626C135.109 5.0545 121.279 10.4707 116.755 13.7088C112.23 16.9469 103.19 30.3714 104.557 57.8746C104.557 57.8746 110.639 55.1251 113.631 59.9202C113.631 59.9202 113.424 45.4274 119.647 34.0153C122.646 28.508 129.516 23.6467 140.57 21.1457C145.724 19.978 145.095 20.5577 148.931 21.5266C152.768 22.4956 160.574 21.4852 160.027 20.6571V20.6736Z" fill="url(#paint29_linear_1_2)"/>
<path d="M106.38 18.3299C103.173 22.9676 96.5522 48.5081 95.7981 58.9098C95.0358 69.3032 95.4749 97.3282 98.2343 106.074C101.002 114.819 106.314 111.25 107.383 105.494C107.789 103.308 104.275 89.3862 103.057 70.1811C101.839 50.976 109.612 26.6943 114.178 23.1084C118.735 19.5225 126.168 17.2616 139.882 20.2264C139.882 20.2264 149.262 21.9573 151.674 19.9945C151.674 19.9945 143.893 12.1767 130.179 12.127C113.059 12.0607 107.913 16.127 106.388 18.3382L106.38 18.3299Z" fill="url(#paint30_linear_1_2)"/>
<path d="M179.135 32.5494C181.82 35.1167 182.682 37.3776 183.328 40.5992C183.569 41.7834 183.933 50.8684 183.933 50.8684C183.933 50.8684 185.044 44.4998 189.841 42.5454C189.841 42.5454 186.792 28.4583 185.682 26.1229C184.563 23.7875 176.964 24.5743 176.152 26.7275C175.655 28.0442 179.144 32.5494 179.144 32.5494H179.135Z" fill="url(#paint31_linear_1_2)"/>
<path d="M236.138 343.201C230.967 304.642 223.277 267.573 212.115 235.283C212.115 235.283 179.127 248.816 121.196 238.861C121.196 238.861 88.7296 264.948 80.2774 324.973C138.548 323.996 177.834 343.483 236.138 343.201Z" fill="#2B2238"/>
<path d="M220.46 439.409L19.8274 628.809L48.308 637.182L241.557 492.552C235.11 474.581 228.241 456.8 220.46 439.409Z" fill="#F8AB9D"/>
<path opacity="0.2" d="M220.46 439.409L57.1498 594.772C63.6464 602.06 70.5739 609.339 76.7887 617.041L241.557 492.543C235.11 474.572 228.241 456.792 220.46 439.4V439.409Z" fill="#201829"/>
<path d="M50.7194 636.196L27.4095 619.733L9.73443 631.02L68.3861 704.445C68.3861 704.445 72.2311 693.762 50.7194 636.188V636.196Z" fill="#F6EC19"/>
<path d="M68.3862 704.445L9.73446 631.02L3.84277 634.78L64.3755 706.598L68.3862 704.445Z" fill="#2B2238"/>
<path d="M53.9262 643.567C49.7581 643.211 45.648 644.105 41.5214 644.536C41.1733 644.569 41.1733 645.124 41.5214 645.082C45.648 644.66 49.7581 643.757 53.9262 644.114C54.2743 644.147 54.2743 643.592 53.9262 643.567Z" fill="#2B2238"/>
<path d="M56.4454 649.174C52.2773 648.817 48.1672 649.712 44.0405 650.143C43.6925 650.176 43.6925 650.731 44.0405 650.689C48.1672 650.267 52.2773 649.364 56.4454 649.72C56.7934 649.753 56.7934 649.198 56.4454 649.174Z" fill="#2B2238"/>
<path d="M58.9894 655.509C54.8213 655.153 50.7112 656.047 46.5846 656.478C46.2365 656.511 46.2365 657.066 46.5846 657.025C50.7112 656.602 54.8213 655.7 58.9894 656.056C59.3375 656.089 59.3375 655.534 58.9894 655.509Z" fill="#2B2238"/>
<path d="M212.588 235.822L150.895 316.145L191.565 434.398L129.143 490.117L128.977 490.158V490.274L62.3372 549.753L104.855 628.577C104.855 628.577 111.02 622.706 121.354 612.991V613.091C121.354 613.091 250.739 509.628 270.22 475.55C289.702 441.479 212.588 235.813 212.588 235.813V235.822Z" fill="#2B2238"/>
<path d="M164.559 355.864L191.573 434.406L129.151 490.125L128.985 490.167V490.283L62.3455 549.761L104.863 628.585C104.863 628.585 111.029 622.714 121.362 612.999V613.099C121.362 613.099 250.747 509.637 270.228 475.558C283.537 452.278 251.766 348.932 230.296 285.768C207.657 308.451 185.242 331.35 164.559 355.855V355.864Z" fill="#131015"/>
<path d="M148.426 490.084L262.315 725.075L278.449 700.163L205.395 484.991C186.32 486.059 167.31 487.574 148.417 490.084H148.426Z" fill="#F8AB9D"/>
<path opacity="0.2" d="M148.426 490.084L240.298 679.633C249.139 675.484 258.089 670.913 267.245 667.153L205.403 484.991C186.328 486.059 167.319 487.574 148.426 490.084V490.084Z" fill="#201829"/>
<path d="M278.192 697.571L255.769 715.219L261.569 735.369L348.693 700.064C348.693 700.064 339.537 693.339 278.192 697.571Z" fill="#F6EC19"/>
<path d="M348.693 700.056L261.569 735.36L263.5 742.077L349.613 704.52L348.693 700.056Z" fill="#2B2238"/>
<path d="M286.18 696.602C284.655 700.495 284.349 704.685 283.578 708.76C283.512 709.108 284.042 709.248 284.109 708.909C284.871 704.834 285.178 700.644 286.711 696.751C286.843 696.42 286.313 696.279 286.18 696.602Z" fill="#2B2238"/>
<path d="M292.271 695.782C290.746 699.675 290.439 703.865 289.669 707.94C289.603 708.288 290.133 708.429 290.199 708.089C290.97 704.014 291.268 699.824 292.801 695.932C292.934 695.6 292.403 695.459 292.271 695.782Z" fill="#2B2238"/>
<path d="M299.074 695.145C297.541 699.037 297.234 703.228 296.472 707.302C296.406 707.65 296.936 707.791 297.002 707.451C297.765 703.377 298.071 699.186 299.604 695.294C299.737 694.963 299.206 694.822 299.074 695.145Z" fill="#2B2238"/>
<path d="M51.1672 557.662L102.344 635.989L128.439 614.076L69.3228 543.575L51.1672 557.662Z" fill="#2B2238"/>
<path d="M278.018 156.906L310.998 95.6636C311.47 86.5207 317.669 71.2743 321.199 67.3488C327.198 60.6738 329.311 69.4689 329.311 69.4689C335.518 65.179 335.592 72.5248 335.592 72.5248C340.68 66.7773 342.42 75.3985 342.42 75.3985C350.458 70.1728 351.676 81.7339 343.539 94.6781C340.514 99.4897 336.67 101.436 333.04 101.991C327.339 120.74 307.352 179.515 295.328 190.538C275.913 208.327 189.021 164.914 189.021 164.914L204.434 129.014L278.018 156.906V156.906Z" fill="url(#paint32_linear_1_2)"/>
<path d="M316.591 80.028C317.71 79.4897 318.845 78.8934 319.981 78.3054C329.51 80.0611 339.106 81.6098 347.873 85.6346C346.961 88.4172 345.536 91.5063 343.539 94.6864C340.514 99.498 336.67 101.444 333.04 101.999C332.659 103.266 332.17 104.815 331.631 106.488C325.358 100.542 318.787 94.7858 312.009 89.1709C312.655 86.3717 313.575 83.4317 314.586 80.6077C315.224 80.5414 315.895 80.3675 316.591 80.028V80.028Z" fill="url(#paint33_linear_1_2)"/>
<path d="M320.793 74.4792C320.793 74.4792 314.412 68.5992 308.23 75.2991C302.049 81.9989 307.319 96.119 316.857 97.5269C326.386 98.9348 320.793 74.4792 320.793 74.4792Z" fill="url(#paint34_linear_1_2)"/>
<path d="M314.056 72.2515C314.056 72.2515 329.676 71.9864 337.44 82.6283C342.528 89.5932 323.892 85.9327 319.16 82.0983C314.42 78.2722 314.056 72.2515 314.056 72.2515Z" fill="url(#paint35_linear_1_2)"/>
<path d="M342.42 75.3984C342.42 75.3984 344.376 71.0175 348.064 72.8146C351.759 74.6117 348.088 95.1584 341.542 94.0072C334.996 92.8478 342.42 75.3984 342.42 75.3984Z" fill="url(#paint36_linear_1_2)"/>
<path d="M322.019 67.2411C322.019 67.2411 323.975 62.8601 327.662 64.6572C331.358 66.4543 327.687 87.001 321.141 85.8499C314.594 84.6904 322.019 67.2411 322.019 67.2411Z" fill="url(#paint37_linear_1_2)"/>
<path d="M335.161 73.1044C335.161 73.1044 337.2 68.5412 340.896 70.3466C344.591 72.152 340.556 93.4441 333.976 92.3509C327.397 91.2577 335.161 73.1044 335.161 73.1044V73.1044Z" fill="url(#paint38_linear_1_2)"/>
<path d="M328.499 70.6201C328.499 70.6201 330.538 66.0569 334.233 67.8623C337.929 69.6594 333.894 90.9597 327.314 89.8665C320.735 88.7733 328.499 70.6201 328.499 70.6201V70.6201Z" fill="url(#paint39_linear_1_2)"/>
<path d="M215.314 200.484L208.569 287.913L100.165 273.561L131.745 218.538L215.314 200.484Z" fill="#2B2238"/>
<path d="M205.743 667.691L277.695 635.708L165.496 334.572C137.172 350.464 108.899 366.448 80.5591 382.282C114.931 465.272 205.743 667.7 205.743 667.7V667.691Z" fill="#2B2238"/>
<path d="M278.341 605.165L195.244 654.374L202.967 672.561L287.912 642.813L278.341 605.165Z" fill="#2B2238"/>
<path opacity="0.2" d="M125.488 229.445L131.745 218.538L215.314 200.484L212.588 235.822C188.366 237.801 153.936 238.232 125.488 229.436V229.445Z" fill="#201829"/>
<path d="M177.735 120.831C177.735 120.831 203.556 114.14 241.002 138.786L227.305 166.165L177.735 120.831V120.831Z" fill="#F6EC19"/>
<path d="M118.627 242.836C118.627 242.836 10.8699 299.424 125.016 481.951L170.368 331.971L118.619 242.836H118.627Z" fill="#2B2238"/>
<path d="M38.4557 232.037L79.5981 288.128C87.6525 292.484 98.7647 304.634 100.787 309.503C104.234 317.785 95.3838 315.913 95.3838 315.913C96.5936 323.358 89.923 320.269 89.923 320.269C92.9227 327.333 84.3959 325.197 84.3959 325.197C85.6638 334.696 74.6925 330.828 66.4971 317.917C63.456 313.122 63.3483 308.816 64.4089 305.304C49.9242 292.087 5.42575 248.782 0.636164 233.188C-7.08684 208.02 69.4886 148.285 69.4886 148.285L95.2927 177.627L38.4557 232.029V232.037Z" fill="url(#paint40_linear_1_2)"/>
<path d="M76.8384 290.638C76.8384 290.638 91.4558 286.671 102.27 293.412C109.355 297.834 90.6023 299.35 84.8846 297.387C79.1669 295.424 76.8384 290.638 76.8384 290.638V290.638Z" fill="#FABCAD"/>
<path d="M84.3957 325.189C84.3957 325.189 87.5114 328.832 84.2963 331.392C81.0811 333.951 64.0938 321.801 67.9553 316.393C71.8168 310.986 84.3874 325.189 84.3874 325.189H84.3957Z" fill="#FABCAD"/>
<path d="M100.538 310.29C100.538 310.29 103.653 313.934 100.438 316.493C97.2232 319.052 80.2359 306.903 84.0974 301.495C87.9589 296.087 100.529 310.29 100.529 310.29H100.538Z" fill="#FABCAD"/>
<path d="M89.5915 319.632C89.5915 319.632 92.8315 323.433 89.6164 325.992C86.4012 328.551 68.9002 315.756 72.712 310.282C76.5237 304.816 89.5915 319.632 89.5915 319.632V319.632Z" fill="#FABCAD"/>
<path d="M94.7041 314.687C94.7041 314.687 97.9442 318.489 94.729 321.048C91.5139 323.607 74.0128 310.812 77.8246 305.346C81.6364 299.88 94.7041 314.696 94.7041 314.696V314.687Z" fill="#FABCAD"/>
<path d="M158.742 106.397C158.742 106.397 163.333 120.194 167.103 119.995C176.666 119.49 194.656 118.993 202.462 121.825C213.342 125.776 230.155 160.368 234.108 175.192C238.06 190.016 239.055 212.749 239.055 212.749C239.055 212.749 151.044 241.412 117.417 224.608L100.604 180.136L80.8243 195.946L48.1922 161.353C48.1922 161.353 73.9051 130.711 98.6237 128.74L129.4 123.44L128.24 106.397C133.153 106.181 141.423 111.332 158.742 106.397V106.397Z" fill="#F6EC19"/>
<path d="M190.337 69.8349C190.337 69.8349 202.141 139.915 179.402 170.766C156.662 201.617 159.371 207.022 159.371 207.022" stroke="white" stroke-miterlimit="10"/>
<path d="M105.685 73.3269C105.685 73.3269 102.195 124.836 135.55 158.856C150.611 171.284 164.788 204.315 156.662 218.923C148.537 233.531 132.296 227.045 131.76 255.18C131.215 283.323 113.356 262.211 103.067 281.697" stroke="white" stroke-miterlimit="10"/>
<path d="M103.255 277.153L98.0187 283.595L101.703 286.587L106.938 280.144L103.255 277.153Z" fill="#E2E2E2"/>
<path d="M73.0552 335.41C71.634 336.759 69.3815 336.705 68.0229 335.284L51.6833 318.103C50.3336 316.683 50.3872 314.431 51.8085 313.073L91.7635 275.101C93.1847 273.752 95.4372 273.806 96.7958 275.226L113.135 292.407C114.485 293.828 114.431 296.08 113.01 297.438L73.0552 335.41Z" fill="#E2E2E2"/>
<path d="M79.598 288.128L38.4556 232.037L62.8013 208.741C53.6198 198.372 45.3085 187.407 37.6683 175.954C17.6648 195.018 -3.61491 219.333 0.636058 233.188C5.42565 248.782 49.9241 292.087 64.4088 305.296C63.3482 308.816 63.4476 313.114 66.497 317.917C74.6924 330.828 85.6637 334.696 84.3958 325.197C84.3958 325.197 92.9309 327.333 89.9229 320.269C89.9229 320.269 96.5935 323.358 95.3837 315.913C95.3837 315.913 104.242 317.793 100.786 309.503C98.7563 304.634 87.6441 292.484 79.598 288.128V288.128Z" fill="url(#paint41_linear_1_2)"/>
<path d="M76.8386 290.638C76.8386 290.638 91.4559 286.671 102.27 293.412C109.355 297.834 90.6024 299.35 84.8847 297.387C79.1671 295.424 76.8386 290.638 76.8386 290.638V290.638Z" fill="url(#paint42_linear_1_2)"/>
<path d="M84.3958 325.189C84.3958 325.189 87.5116 328.832 84.2964 331.392C81.0812 333.951 64.094 321.801 67.9555 316.393C71.817 310.986 84.3876 325.189 84.3876 325.189H84.3958Z" fill="url(#paint43_linear_1_2)"/>
<path d="M100.538 310.29C100.538 310.29 103.654 313.934 100.438 316.493C97.2233 319.052 80.236 306.903 84.0975 301.495C87.959 296.087 100.53 310.29 100.53 310.29H100.538Z" fill="url(#paint44_linear_1_2)"/>
<path d="M89.5913 319.632C89.5913 319.632 92.8314 323.433 89.6162 325.992C86.4011 328.551 68.9 315.756 72.7118 310.282C76.5236 304.816 89.5913 319.632 89.5913 319.632V319.632Z" fill="url(#paint45_linear_1_2)"/>
<path d="M94.7043 314.687C94.7043 314.687 97.9443 318.489 94.7291 321.048C91.514 323.607 74.0129 310.812 77.8247 305.346C81.6365 299.88 94.7043 314.696 94.7043 314.696V314.687Z" fill="url(#paint46_linear_1_2)"/>
<path d="M118.893 108.898C117.202 111.076 113.042 109.502 110.49 103.142C109.786 101.386 109.048 99.6802 108.319 97.9411C105.021 90.1315 101.731 81.7505 101.267 66.7277C100.53 42.7607 111.774 24.9635 111.948 24.6902C108.957 31.8041 109.255 45.9988 110.689 58.9761C111.791 69.0217 113.581 78.3385 115.039 83.1004C118.395 94.0073 121.047 106.123 118.893 108.898Z" fill="url(#paint47_linear_1_2)"/>
<ellipse cx="190.337" cy="68.9618" rx="1.74539" ry="2.61909" fill="white"/>
<path d="M169.535 18.9686C168.665 19.2999 171.872 24.625 175.999 27.4076C176.828 27.9625 179.338 25.5525 181.849 27.3C184.36 29.0391 184.91 37.042 187.719 55.8661C189.083 65.0061 185.65 101.221 185.973 103.01C186.288 104.799 194.453 105.561 195.853 100.369C197.262 95.1678 196.873 75.5155 197.063 65.0061C197.254 54.4968 189.597 24.8983 186.2 20.8154C182.802 16.7409 175.543 16.6829 169.535 18.9686Z" fill="url(#paint48_linear_1_2)"/>
<defs>
<linearGradient id="paint0_linear_1_2" x1="190.662" y1="74.9348" x2="103.179" y2="132.1" gradientUnits="userSpaceOnUse">
<stop stop-color="#31111B"/>
<stop offset="1" stop-color="#1A0F21"/>
</linearGradient>
<linearGradient id="paint1_linear_1_2" x1="199.992" y1="75.531" x2="149.471" y2="108.544" gradientUnits="userSpaceOnUse">
<stop stop-color="#31111B"/>
<stop offset="1" stop-color="#1A0F21"/>
</linearGradient>
<linearGradient id="paint2_linear_1_2" x1="210.21" y1="74.9763" x2="152.324" y2="112.805" gradientUnits="userSpaceOnUse">
<stop stop-color="#731F24"/>
<stop offset="1" stop-color="#4F0A36"/>
</linearGradient>
<linearGradient id="paint3_linear_1_2" x1="199.454" y1="81.7092" x2="148.361" y2="115.095" gradientUnits="userSpaceOnUse">
<stop stop-color="#731F24"/>
<stop offset="1" stop-color="#4F0A36"/>
</linearGradient>
<linearGradient id="paint4_linear_1_2" x1="82.134" y1="116.343" x2="99.5476" y2="107.101" gradientUnits="userSpaceOnUse">
<stop stop-color="#84153C"/>
<stop offset="1" stop-color="#36112D"/>
</linearGradient>
<linearGradient id="paint5_linear_1_2" x1="128.24" y1="56.5414" x2="128.24" y2="136.881" gradientUnits="userSpaceOnUse">
<stop stop-color="#5C0E13"/>
<stop offset="1" stop-color="#4F0A36"/>
</linearGradient>
<linearGradient id="paint6_linear_1_2" x1="128.24" y1="94.9764" x2="128.24" y2="104.898" gradientUnits="userSpaceOnUse">
<stop stop-color="#817EBC"/>
<stop offset="1" stop-color="white"/>
</linearGradient>
<linearGradient id="paint7_linear_1_2" x1="114.658" y1="56.5413" x2="114.658" y2="136.881" gradientUnits="userSpaceOnUse">
<stop stop-color="#5C0E13"/>
<stop offset="1" stop-color="#4F0A36"/>
</linearGradient>
<linearGradient id="paint8_linear_1_2" x1="134.587" y1="67.0672" x2="75.1525" y2="105.907" gradientUnits="userSpaceOnUse">
<stop stop-color="#31111B"/>
<stop offset="1" stop-color="#1A0F21"/>
</linearGradient>
<linearGradient id="paint9_linear_1_2" x1="180.138" y1="44.4088" x2="178.094" y2="102.405" gradientUnits="userSpaceOnUse">
<stop stop-color="#B484BB"/>
<stop offset="1" stop-color="white"/>
</linearGradient>
<linearGradient id="paint10_linear_1_2" x1="178.978" y1="91.1088" x2="178.978" y2="100.45" gradientUnits="userSpaceOnUse">
<stop stop-color="#817EBC"/>
<stop offset="1" stop-color="white"/>
</linearGradient>
<linearGradient id="paint11_linear_1_2" x1="196.023" y1="85.6181" x2="196.023" y2="56.8395" gradientUnits="userSpaceOnUse">
<stop stop-color="#F7A190"/>
<stop offset="0.43" stop-color="#F3A592"/>
<stop offset="0.51" stop-color="#F39F8D"/>
<stop offset="0.76" stop-color="#F49383"/>
<stop offset="1" stop-color="#F58F80"/>
</linearGradient>
<linearGradient id="paint12_linear_1_2" x1="196.029" y1="78.1317" x2="196.029" y2="58.3221" gradientUnits="userSpaceOnUse">
<stop stop-color="#F7A190"/>
<stop offset="0.43" stop-color="#F3A592"/>
<stop offset="0.51" stop-color="#F39F8D"/>
<stop offset="0.76" stop-color="#F49383"/>
<stop offset="1" stop-color="#F58F80"/>
</linearGradient>
<linearGradient id="paint13_linear_1_2" x1="193.591" y1="70.8604" x2="193.591" y2="62.2475" gradientUnits="userSpaceOnUse">
<stop stop-color="#F7A190"/>
<stop offset="0.43" stop-color="#F3A592"/>
<stop offset="0.51" stop-color="#F39F8D"/>
<stop offset="0.76" stop-color="#F49383"/>
<stop offset="1" stop-color="#F58F80"/>
</linearGradient>
<linearGradient id="paint14_linear_1_2" x1="186.8" y1="71.4236" x2="196.214" y2="71.4236" gradientUnits="userSpaceOnUse">
<stop stop-color="#F7A190"/>
<stop offset="0.43" stop-color="#F3A592"/>
<stop offset="0.51" stop-color="#F39F8D"/>
<stop offset="0.76" stop-color="#F49383"/>
<stop offset="1" stop-color="#F58F80"/>
</linearGradient>
<linearGradient id="paint15_linear_1_2" x1="108.104" y1="115.664" x2="186.975" y2="115.664" gradientUnits="userSpaceOnUse">
<stop stop-color="#F9AC97"/>
<stop offset="0.18" stop-color="#F79B8D"/>
<stop offset="0.45" stop-color="#F48781"/>
<stop offset="0.73" stop-color="#F37B7A"/>
<stop offset="1" stop-color="#F37778"/>
</linearGradient>
<linearGradient id="paint16_linear_1_2" x1="103.016" y1="54.678" x2="189.419" y2="54.678" gradientUnits="userSpaceOnUse">
<stop stop-color="#F7A190"/>
<stop offset="0.43" stop-color="#F3A592"/>
<stop offset="0.51" stop-color="#F39F8D"/>
<stop offset="0.76" stop-color="#F49383"/>
<stop offset="1" stop-color="#F58F80"/>
</linearGradient>
<linearGradient id="paint17_linear_1_2" x1="103.016" y1="92.7735" x2="103.016" y2="55.8126" gradientUnits="userSpaceOnUse">
<stop stop-color="#F7A190"/>
<stop offset="0.43" stop-color="#F3A592"/>
<stop offset="0.51" stop-color="#F39F8D"/>
<stop offset="0.76" stop-color="#F49383"/>
<stop offset="1" stop-color="#F58F80"/>
</linearGradient>
<linearGradient id="paint18_linear_1_2" x1="103.007" y1="83.1584" x2="103.007" y2="57.7173" gradientUnits="userSpaceOnUse">
<stop stop-color="#F7A190"/>
<stop offset="0.43" stop-color="#F3A592"/>
<stop offset="0.51" stop-color="#F39F8D"/>
<stop offset="0.76" stop-color="#F49383"/>
<stop offset="1" stop-color="#F58F80"/>
</linearGradient>
<linearGradient id="paint19_linear_1_2" x1="107.076" y1="73.8086" x2="107.076" y2="62.7609" gradientUnits="userSpaceOnUse">
<stop stop-color="#F7A190"/>
<stop offset="0.43" stop-color="#F3A592"/>
<stop offset="0.51" stop-color="#F39F8D"/>
<stop offset="0.76" stop-color="#F49383"/>
<stop offset="1" stop-color="#F58F80"/>
</linearGradient>
<linearGradient id="paint20_linear_1_2" x1="95.8727" y1="74.5373" x2="111.551" y2="74.5373" gradientUnits="userSpaceOnUse">
<stop stop-color="#F7A190"/>
<stop offset="0.43" stop-color="#F3A592"/>
<stop offset="0.51" stop-color="#F39F8D"/>
<stop offset="0.76" stop-color="#F49383"/>
<stop offset="1" stop-color="#F58F80"/>
</linearGradient>
<linearGradient id="paint21_linear_1_2" x1="165.514" y1="55.8877" x2="184.677" y2="54.5805" gradientUnits="userSpaceOnUse">
<stop stop-color="#F7A190"/>
<stop offset="0.43" stop-color="#F3A592"/>
<stop offset="0.51" stop-color="#F39F8D"/>
<stop offset="0.76" stop-color="#F49383"/>
<stop offset="1" stop-color="#F58F80"/>
</linearGradient>
<linearGradient id="paint22_linear_1_2" x1="143.216" y1="55.905" x2="124.052" y2="54.5978" gradientUnits="userSpaceOnUse">
<stop stop-color="#F7A190"/>
<stop offset="0.43" stop-color="#F3A592"/>
<stop offset="0.51" stop-color="#F39F8D"/>
<stop offset="0.76" stop-color="#F49383"/>
<stop offset="1" stop-color="#F58F80"/>
</linearGradient>
<linearGradient id="paint23_linear_1_2" x1="155.32" y1="76.4836" x2="155.32" y2="64.9225" gradientUnits="userSpaceOnUse">
<stop stop-color="#F37B7F"/>
<stop offset="0.4" stop-color="#F3817F"/>
<stop offset="1" stop-color="#F48680"/>
</linearGradient>
<linearGradient id="paint24_linear_1_2" x1="162.281" y1="72.7486" x2="162.281" y2="66.38" gradientUnits="userSpaceOnUse">
<stop stop-color="#FBE3D4"/>
<stop offset="0.99" stop-color="#AE7CB7"/>
</linearGradient>
<linearGradient id="paint25_linear_1_2" x1="148.541" y1="72.7486" x2="148.541" y2="66.38" gradientUnits="userSpaceOnUse">
<stop stop-color="#FBE3D4"/>
<stop offset="0.99" stop-color="#AE7CB7"/>
</linearGradient>
<linearGradient id="paint26_linear_1_2" x1="177.414" y1="7.10703" x2="170.639" y2="17.6466" gradientUnits="userSpaceOnUse">
<stop stop-color="#84153C"/>
<stop offset="1" stop-color="#36112D"/>
</linearGradient>
<linearGradient id="paint27_linear_1_2" x1="144.42" y1="-6.10032" x2="154.139" y2="10.5" gradientUnits="userSpaceOnUse">
<stop stop-color="#731F24"/>
<stop offset="1" stop-color="#4F0A36"/>
</linearGradient>
<linearGradient id="paint28_linear_1_2" x1="168.53" y1="36.7286" x2="57.3484" y2="19.6873" gradientUnits="userSpaceOnUse">
<stop stop-color="#731F24"/>
<stop offset="1" stop-color="#4F0A36"/>
</linearGradient>
<linearGradient id="paint29_linear_1_2" x1="134.979" y1="13.023" x2="124.153" y2="68.0616" gradientUnits="userSpaceOnUse">
<stop stop-color="#270E0E"/>
<stop offset="1" stop-color="#340F37"/>
</linearGradient>
<linearGradient id="paint30_linear_1_2" x1="127.775" y1="19.486" x2="113.106" y2="89.5531" gradientUnits="userSpaceOnUse">
<stop stop-color="#731F24"/>
<stop offset="1" stop-color="#4F0A36"/>
</linearGradient>
<linearGradient id="paint31_linear_1_2" x1="191.95" y1="29.7631" x2="170.743" y2="45.6134" gradientUnits="userSpaceOnUse">
<stop stop-color="#31111B"/>
<stop offset="1" stop-color="#1A0F21"/>
</linearGradient>
<linearGradient id="paint32_linear_1_2" x1="189.013" y1="129.834" x2="349.074" y2="129.834" gradientUnits="userSpaceOnUse">
<stop stop-color="#F7A190"/>
<stop offset="0.43" stop-color="#F3A592"/>
<stop offset="0.51" stop-color="#F39F8D"/>
<stop offset="0.76" stop-color="#F49383"/>
<stop offset="1" stop-color="#F58F80"/>
</linearGradient>
<linearGradient id="paint33_linear_1_2" x1="312.009" y1="92.3924" x2="347.865" y2="92.3924" gradientUnits="userSpaceOnUse">
<stop stop-color="#F7A190"/>
<stop offset="0.43" stop-color="#F3A592"/>
<stop offset="0.51" stop-color="#F39F8D"/>
<stop offset="0.76" stop-color="#F49383"/>
<stop offset="1" stop-color="#F58F80"/>
</linearGradient>
<linearGradient id="paint34_linear_1_2" x1="305.57" y1="84.8395" x2="322.425" y2="84.8395" gradientUnits="userSpaceOnUse">
<stop stop-color="#F7A190"/>
<stop offset="0.43" stop-color="#F3A592"/>
<stop offset="0.51" stop-color="#F39F8D"/>
<stop offset="0.76" stop-color="#F49383"/>
<stop offset="1" stop-color="#F58F80"/>
</linearGradient>
<linearGradient id="paint35_linear_1_2" x1="314.056" y1="79.3985" x2="338.319" y2="79.3985" gradientUnits="userSpaceOnUse">
<stop stop-color="#F7A190"/>
<stop offset="0.43" stop-color="#F3A592"/>
<stop offset="0.51" stop-color="#F39F8D"/>
<stop offset="0.76" stop-color="#F49383"/>
<stop offset="1" stop-color="#F58F80"/>
</linearGradient>
<linearGradient id="paint36_linear_1_2" x1="338.841" y1="83.2246" x2="349.539" y2="83.2246" gradientUnits="userSpaceOnUse">
<stop stop-color="#F7A190"/>
<stop offset="0.43" stop-color="#F3A592"/>
<stop offset="0.51" stop-color="#F39F8D"/>
<stop offset="0.76" stop-color="#F49383"/>
<stop offset="1" stop-color="#F58F80"/>
</linearGradient>
<linearGradient id="paint37_linear_1_2" x1="318.439" y1="75.0589" x2="329.129" y2="75.0589" gradientUnits="userSpaceOnUse">
<stop stop-color="#F7A190"/>
<stop offset="0.43" stop-color="#F3A592"/>
<stop offset="0.51" stop-color="#F39F8D"/>
<stop offset="0.76" stop-color="#F49383"/>
<stop offset="1" stop-color="#F58F80"/>
</linearGradient>
<linearGradient id="paint38_linear_1_2" x1="331.325" y1="81.1541" x2="342.296" y2="81.1541" gradientUnits="userSpaceOnUse">
<stop stop-color="#F7A190"/>
<stop offset="0.43" stop-color="#F3A592"/>
<stop offset="0.51" stop-color="#F39F8D"/>
<stop offset="0.76" stop-color="#F49383"/>
<stop offset="1" stop-color="#F58F80"/>
</linearGradient>
<linearGradient id="paint39_linear_1_2" x1="324.663" y1="78.6698" x2="335.634" y2="78.6698" gradientUnits="userSpaceOnUse">
<stop stop-color="#F7A190"/>
<stop offset="0.43" stop-color="#F3A592"/>
<stop offset="0.51" stop-color="#F39F8D"/>
<stop offset="0.76" stop-color="#F49383"/>
<stop offset="1" stop-color="#F58F80"/>
</linearGradient>
<linearGradient id="paint40_linear_1_2" x1="0.0892561" y1="239.374" x2="101.59" y2="239.374" gradientUnits="userSpaceOnUse">
<stop stop-color="#F7A190"/>
<stop offset="0.43" stop-color="#F3A592"/>
<stop offset="0.51" stop-color="#F39F8D"/>
<stop offset="0.76" stop-color="#F49383"/>
<stop offset="1" stop-color="#F58F80"/>
</linearGradient>
<linearGradient id="paint41_linear_1_2" x1="0.0891501" y1="253.205" x2="101.59" y2="253.205" gradientUnits="userSpaceOnUse">
<stop stop-color="#F7A190"/>
<stop offset="0.43" stop-color="#F3A592"/>
<stop offset="0.51" stop-color="#F39F8D"/>
<stop offset="0.76" stop-color="#F49383"/>
<stop offset="1" stop-color="#F58F80"/>
</linearGradient>
<linearGradient id="paint42_linear_1_2" x1="103.844" y1="293.859" x2="76.8386" y2="293.859" gradientUnits="userSpaceOnUse">
<stop stop-color="#F7A190"/>
<stop offset="0.43" stop-color="#F3A592"/>
<stop offset="0.51" stop-color="#F39F8D"/>
<stop offset="0.76" stop-color="#F49383"/>
<stop offset="1" stop-color="#F58F80"/>
</linearGradient>
<linearGradient id="paint43_linear_1_2" x1="85.7548" y1="323.458" x2="67.392" y2="323.458" gradientUnits="userSpaceOnUse">
<stop stop-color="#F7A190"/>
<stop offset="0.43" stop-color="#F3A592"/>
<stop offset="0.51" stop-color="#F39F8D"/>
<stop offset="0.76" stop-color="#F49383"/>
<stop offset="1" stop-color="#F58F80"/>
</linearGradient>
<linearGradient id="paint44_linear_1_2" x1="101.897" y1="308.559" x2="83.534" y2="308.559" gradientUnits="userSpaceOnUse">
<stop stop-color="#F7A190"/>
<stop offset="0.43" stop-color="#F3A592"/>
<stop offset="0.51" stop-color="#F39F8D"/>
<stop offset="0.76" stop-color="#F49383"/>
<stop offset="1" stop-color="#F58F80"/>
</linearGradient>
<linearGradient id="paint45_linear_1_2" x1="91.0415" y1="317.702" x2="72.1732" y2="317.702" gradientUnits="userSpaceOnUse">
<stop stop-color="#F7A190"/>
<stop offset="0.43" stop-color="#F3A592"/>
<stop offset="0.51" stop-color="#F39F8D"/>
<stop offset="0.76" stop-color="#F49383"/>
<stop offset="1" stop-color="#F58F80"/>
</linearGradient>
<linearGradient id="paint46_linear_1_2" x1="96.1461" y1="312.758" x2="77.2861" y2="312.758" gradientUnits="userSpaceOnUse">
<stop stop-color="#F7A190"/>
<stop offset="0.43" stop-color="#F3A592"/>
<stop offset="0.51" stop-color="#F39F8D"/>
<stop offset="0.76" stop-color="#F49383"/>
<stop offset="1" stop-color="#F58F80"/>
</linearGradient>
<linearGradient id="paint47_linear_1_2" x1="118.247" y1="69.9522" x2="152.177" y2="93.6774" gradientUnits="userSpaceOnUse">
<stop stop-color="#731F24"/>
<stop offset="1" stop-color="#4F0A36"/>
</linearGradient>
<linearGradient id="paint48_linear_1_2" x1="172.771" y1="23.5754" x2="208.443" y2="119.963" gradientUnits="userSpaceOnUse">
<stop stop-color="#731F24"/>
<stop offset="1" stop-color="#4F0A36"/>
</linearGradient>
</defs>
</svg>
