<svg width="11712" height="9244" viewBox="0 0 11712 9244" fill="none" xmlns="http://www.w3.org/2000/svg">
<path fill-rule="evenodd" clip-rule="evenodd" d="M5978.37 44.0462C7174.59 58.1865 8425.4 17.4564 9422.54 570.125C10442 1135.17 11063 2077.36 11414.3 3056.93C11759.6 4019.69 11876.4 5086.92 11369.3 5998.25C10888.2 6862.85 9721.18 7218.71 8791.39 7770.95C7874.46 8315.54 7090.57 9060.12 5978.37 9200.09C4767.06 9352.52 3519.66 9100.18 2474.6 8565.88C1369.82 8001.04 208.254 7223.89 18.2594 6152.88C-167.546 5105.49 1115.89 4325.48 1545.67 3329.47C1953.87 2383.46 1562.63 1154.98 2462.72 487.854C3371.84 -185.968 4763.6 29.6865 5978.37 44.0462Z" fill="url(#paint0_linear_11_2)"/>
<defs>
<linearGradient id="paint0_linear_11_2" x1="0" y1="4622" x2="11712" y2="4622" gradientUnits="userSpaceOnUse">
<stop offset="1" stop-color="white"/>
</linearGradient>
</defs>
</svg>
