<svg width="64" height="64" viewBox="0 0 64 64" fill="none" xmlns="http://www.w3.org/2000/svg">
  <defs>
    <linearGradient id="merchantGradient" x1="0%" y1="0%" x2="100%" y2="100%">
      <stop offset="0%" style="stop-color:#0EA5E9;stop-opacity:1" />
      <stop offset="100%" style="stop-color:#6366F1;stop-opacity:1" />
    </linearGradient>
  </defs>
  
  <!-- Main Figure -->
  <circle cx="32" cy="20" r="8" fill="url(#merchantGradient)" opacity="0.2"/>
  <circle cx="32" cy="20" r="6" fill="url(#merchantGradient)" opacity="0.1"/>
  
  <!-- Body -->
  <ellipse cx="32" cy="38" rx="10" ry="14" fill="url(#merchantGradient)" opacity="0.15"/>
  
  <!-- Arms -->
  <ellipse cx="22" cy="32" rx="3" ry="8" fill="url(#merchantGradient)" opacity="0.2" transform="rotate(-20 22 32)"/>
  <ellipse cx="42" cy="32" rx="3" ry="8" fill="url(#merchantGradient)" opacity="0.2" transform="rotate(20 42 32)"/>
  
  <!-- Laptop/Device -->
  <rect x="26" y="28" width="12" height="8" rx="1" fill="url(#merchantGradient)" opacity="0.3"/>
  <rect x="27" y="29" width="10" height="6" rx="0.5" fill="white" opacity="0.8"/>
  
  <!-- Screen Content -->
  <rect x="28" y="30" width="8" height="1" rx="0.5" fill="url(#merchantGradient)" opacity="0.4"/>
  <rect x="28" y="32" width="6" height="1" rx="0.5" fill="url(#merchantGradient)" opacity="0.3"/>
  <rect x="28" y="34" width="4" height="1" rx="0.5" fill="url(#merchantGradient)" opacity="0.3"/>
  
  <!-- Shopping Cart -->
  <circle cx="48" cy="48" r="6" fill="url(#merchantGradient)" opacity="0.1"/>
  <rect x="46" y="44" width="4" height="3" rx="0.5" fill="url(#merchantGradient)" opacity="0.4"/>
  <circle cx="47" cy="50" r="1" fill="url(#merchantGradient)"/>
  <circle cx="49" cy="50" r="1" fill="url(#merchantGradient)"/>
  
  <!-- Products/Items -->
  <rect x="16" y="48" width="3" height="4" rx="0.5" fill="url(#merchantGradient)" opacity="0.5"/>
  <rect x="20" y="46" width="3" height="6" rx="0.5" fill="url(#merchantGradient)" opacity="0.4"/>
  <rect x="24" y="50" width="3" height="2" rx="0.5" fill="url(#merchantGradient)" opacity="0.6"/>
  
  <!-- Success Indicators -->
  <circle cx="52" cy="16" r="3" fill="url(#merchantGradient)" opacity="0.2"/>
  <path d="M50 16 L51.5 17.5 L54 14.5" stroke="url(#merchantGradient)" stroke-width="1.5" fill="none" stroke-linecap="round"/>
  
  <!-- Growth Arrow -->
  <path d="M8 52 L16 44" stroke="url(#merchantGradient)" stroke-width="2" stroke-linecap="round"/>
  <path d="M12 44 L16 44 L16 48" stroke="url(#merchantGradient)" stroke-width="2" stroke-linecap="round" fill="none"/>
  
  <!-- Decorative Elements -->
  <circle cx="8" cy="12" r="1.5" fill="url(#merchantGradient)" opacity="0.3"/>
  <circle cx="56" cy="32" r="1" fill="url(#merchantGradient)" opacity="0.4"/>
  <circle cx="12" cy="60" r="2" fill="url(#merchantGradient)" opacity="0.2"/>
</svg>