<svg width="64" height="64" viewBox="0 0 64 64" fill="none" xmlns="http://www.w3.org/2000/svg">
  <!-- Background circle -->
  <circle cx="32" cy="32" r="30" fill="#8B5CF6" opacity="0.1"/>
  
  <!-- Main warehouse/box structure -->
  <rect x="12" y="20" width="40" height="28" rx="2" fill="#8B5CF6" opacity="0.8"/>
  <rect x="14" y="22" width="36" height="24" rx="1" fill="#FFFFFF"/>
  
  <!-- Warehouse door -->
  <rect x="26" y="30" width="12" height="16" rx="1" fill="#8B5CF6" opacity="0.6"/>
  <rect x="28" y="32" width="8" height="12" rx="0.5" fill="#FFFFFF"/>
  
  <!-- Loading dock lines -->
  <line x1="16" y1="26" x2="24" y2="26" stroke="#8B5CF6" stroke-width="1" opacity="0.6"/>
  <line x1="16" y1="28" x2="22" y2="28" stroke="#8B5CF6" stroke-width="1" opacity="0.6"/>
  <line x1="40" y1="26" x2="48" y2="26" stroke="#8B5CF6" stroke-width="1" opacity="0.6"/>
  <line x1="42" y1="28" x2="48" y2="28" stroke="#8B5CF6" stroke-width="1" opacity="0.6"/>
  
  <!-- Boxes/packages -->
  <rect x="18" y="34" width="6" height="6" rx="1" fill="#8B5CF6" opacity="0.7"/>
  <rect x="19" y="35" width="4" height="4" rx="0.5" fill="#FFFFFF"/>
  
  <rect x="40" y="34" width="6" height="6" rx="1" fill="#8B5CF6" opacity="0.7"/>
  <rect x="41" y="35" width="4" height="4" rx="0.5" fill="#FFFFFF"/>
  
  <rect x="18" y="40" width="6" height="6" rx="1" fill="#8B5CF6" opacity="0.5"/>
  <rect x="19" y="41" width="4" height="4" rx="0.5" fill="#FFFFFF"/>
  
  <!-- Truck/delivery vehicle -->
  <rect x="20" y="12" width="24" height="8" rx="2" fill="#8B5CF6"/>
  <rect x="22" y="14" width="20" height="4" rx="1" fill="#FFFFFF"/>
  
  <!-- Truck wheels -->
  <circle cx="26" cy="20" r="2" fill="#6B46C1"/>
  <circle cx="38" cy="20" r="2" fill="#6B46C1"/>
  
  <!-- B2B indicator -->
  <text x="32" y="56" text-anchor="middle" font-family="Arial, sans-serif" font-size="8" font-weight="bold" fill="#8B5CF6">B2B</text>
  
  <!-- Wholesale indicator arrows -->
  <path d="M8 32 L12 28 L12 30 L16 30 L16 34 L12 34 L12 36 Z" fill="#8B5CF6" opacity="0.6"/>
  <path d="M56 32 L52 28 L52 30 L48 30 L48 34 L52 34 L52 36 Z" fill="#8B5CF6" opacity="0.6"/>
</svg>