<svg width="64" height="64" viewBox="0 0 64 64" fill="none" xmlns="http://www.w3.org/2000/svg">
  <defs>
    <linearGradient id="providerGradient" x1="0%" y1="0%" x2="100%" y2="100%">
      <stop offset="0%" style="stop-color:#0EA5E9;stop-opacity:1" />
      <stop offset="100%" style="stop-color:#6366F1;stop-opacity:1" />
    </linearGradient>
  </defs>
  
  <!-- Warehouse Building -->
  <rect x="8" y="24" width="48" height="28" rx="2" fill="url(#providerGradient)" opacity="0.1"/>
  <rect x="8" y="24" width="48" height="4" rx="2" fill="url(#providerGradient)" opacity="0.3"/>
  
  <!-- Warehouse Doors -->
  <rect x="12" y="32" width="12" height="16" rx="1" fill="url(#providerGradient)" opacity="0.2"/>
  <rect x="28" y="32" width="12" height="16" rx="1" fill="url(#providerGradient)" opacity="0.2"/>
  <rect x="44" y="32" width="8" height="16" rx="1" fill="url(#providerGradient)" opacity="0.2"/>
  
  <!-- Door Handles -->
  <rect x="22" y="38" width="1" height="4" rx="0.5" fill="url(#providerGradient)"/>
  <rect x="38" y="38" width="1" height="4" rx="0.5" fill="url(#providerGradient)"/>
  <rect x="50" y="38" width="1" height="4" rx="0.5" fill="url(#providerGradient)"/>
  
  <!-- Loading Dock -->
  <rect x="24" y="48" width="16" height="4" rx="1" fill="url(#providerGradient)" opacity="0.4"/>
  
  <!-- Boxes/Packages -->
  <rect x="14" y="40" width="4" height="4" rx="0.5" fill="url(#providerGradient)" opacity="0.6"/>
  <rect x="18" y="36" width="4" height="4" rx="0.5" fill="url(#providerGradient)" opacity="0.5"/>
  <rect x="30" y="42" width="4" height="4" rx="0.5" fill="url(#providerGradient)" opacity="0.6"/>
  <rect x="34" y="38" width="4" height="4" rx="0.5" fill="url(#providerGradient)" opacity="0.5"/>
  
  <!-- Delivery Truck -->
  <rect x="44" y="54" width="16" height="6" rx="2" fill="url(#providerGradient)" opacity="0.3"/>
  <rect x="48" y="56" width="8" height="2" rx="1" fill="url(#providerGradient)" opacity="0.5"/>
  <circle cx="48" cy="62" r="2" fill="url(#providerGradient)" opacity="0.4"/>
  <circle cx="56" cy="62" r="2" fill="url(#providerGradient)" opacity="0.4"/>
  
  <!-- Supply Chain Network -->
  <circle cx="16" cy="16" r="3" fill="url(#providerGradient)" opacity="0.3"/>
  <circle cx="32" cy="8" r="3" fill="url(#providerGradient)" opacity="0.3"/>
  <circle cx="48" cy="16" r="3" fill="url(#providerGradient)" opacity="0.3"/>
  
  <!-- Connection Lines -->
  <line x1="19" y1="16" x2="29" y2="10" stroke="url(#providerGradient)" stroke-width="1" opacity="0.4"/>
  <line x1="35" y1="10" x2="45" y2="16" stroke="url(#providerGradient)" stroke-width="1" opacity="0.4"/>
  <line x1="16" y1="19" x2="16" y2="24" stroke="url(#providerGradient)" stroke-width="1" opacity="0.4"/>
  <line x1="48" y1="19" x2="48" y2="24" stroke="url(#providerGradient)" stroke-width="1" opacity="0.4"/>
  
  <!-- Inventory Symbols -->
  <rect x="6" y="54" width="2" height="6" rx="1" fill="url(#providerGradient)" opacity="0.4"/>
  <rect x="10" y="56" width="2" height="4" rx="1" fill="url(#providerGradient)" opacity="0.5"/>
  <rect x="14" y="58" width="2" height="2" rx="1" fill="url(#providerGradient)" opacity="0.6"/>
  
  <!-- Decorative Elements -->
  <circle cx="60" cy="8" r="1.5" fill="url(#providerGradient)" opacity="0.3"/>
  <circle cx="4" cy="32" r="1" fill="url(#providerGradient)" opacity="0.4"/>
</svg>