<svg width="64" height="64" viewBox="0 0 64 64" fill="none" xmlns="http://www.w3.org/2000/svg">
  <defs>
    <linearGradient id="vendorGradient" x1="0%" y1="0%" x2="100%" y2="100%">
      <stop offset="0%" style="stop-color:#0EA5E9;stop-opacity:1" />
      <stop offset="100%" style="stop-color:#6366F1;stop-opacity:1" />
    </linearGradient>
  </defs>
  
  <!-- Store Building -->
  <rect x="8" y="20" width="48" height="32" rx="4" fill="url(#vendorGradient)" opacity="0.1"/>
  <rect x="8" y="20" width="48" height="4" rx="2" fill="url(#vendorGradient)"/>
  
  <!-- Store Front -->
  <rect x="12" y="28" width="16" height="20" rx="2" fill="url(#vendorGradient)" opacity="0.2"/>
  <rect x="36" y="28" width="16" height="20" rx="2" fill="url(#vendorGradient)" opacity="0.2"/>
  
  <!-- Door -->
  <rect x="28" y="32" width="8" height="16" rx="1" fill="url(#vendorGradient)"/>
  <circle cx="34" cy="40" r="1" fill="white"/>
  
  <!-- Windows -->
  <rect x="14" y="30" width="12" height="8" rx="1" fill="white" opacity="0.8"/>
  <rect x="38" y="30" width="12" height="8" rx="1" fill="white" opacity="0.8"/>
  
  <!-- Window Frames -->
  <line x1="20" y1="30" x2="20" y2="38" stroke="url(#vendorGradient)" stroke-width="0.5"/>
  <line x1="14" y1="34" x2="26" y2="34" stroke="url(#vendorGradient)" stroke-width="0.5"/>
  <line x1="44" y1="30" x2="44" y2="38" stroke="url(#vendorGradient)" stroke-width="0.5"/>
  <line x1="38" y1="34" x2="50" y2="34" stroke="url(#vendorGradient)" stroke-width="0.5"/>
  
  <!-- Awning -->
  <path d="M6 20 L58 20 L56 16 L8 16 Z" fill="url(#vendorGradient)" opacity="0.3"/>
  
  <!-- Shopping Bags -->
  <rect x="16" y="40" width="4" height="6" rx="1" fill="url(#vendorGradient)" opacity="0.6"/>
  <rect x="44" y="42" width="4" height="4" rx="1" fill="url(#vendorGradient)" opacity="0.6"/>
  
  <!-- Decorative Elements -->
  <circle cx="12" cy="12" r="2" fill="url(#vendorGradient)" opacity="0.3"/>
  <circle cx="52" cy="8" r="1.5" fill="url(#vendorGradient)" opacity="0.4"/>
  <circle cx="56" cy="56" r="2" fill="url(#vendorGradient)" opacity="0.2"/>
</svg>